<svg width="64" height="64" viewBox="0 0 64 64" fill="none" xmlns="http://www.w3.org/2000/svg">
<path d="M33.497 47H30.497V42.5H33.497V47ZM41.543 43.667L38.3615 40.4855L40.4825 38.3645L43.6655 41.5475L41.546 43.667H41.543V43.667ZM22.451 43.667L20.33 41.546L23.51 38.363L25.6325 40.484L22.4525 43.6655V43.667H22.451ZM31.997 39.5105C30.0051 39.5097 28.0951 38.7177 26.6872 37.3086C25.2792 35.8995 24.4887 33.9889 24.4895 31.997C24.4903 30.0051 25.2824 28.0951 26.6914 26.6872C28.1005 25.2792 30.0111 24.4887 32.003 24.4895C32.9893 24.4899 33.9659 24.6845 34.8769 25.0624C35.788 25.4402 36.6157 25.9937 37.3129 26.6914C38.01 27.3891 38.5629 28.2173 38.94 29.1286C39.317 30.04 39.5109 31.0167 39.5105 32.003C39.5101 32.9893 39.3155 33.9659 38.9377 34.8769C38.5599 35.788 38.0063 36.6157 37.3086 37.3128C36.6109 38.01 35.7827 38.5629 34.8714 38.9399C33.96 39.317 32.9833 39.5109 31.997 39.5105V39.5105ZM31.997 27.4895C31.4047 27.4899 30.8182 27.607 30.2711 27.834C29.7241 28.061 29.227 28.3936 28.8085 28.8127C28.3899 29.2318 28.058 29.7293 27.8317 30.2767C27.6054 30.8241 27.4891 31.4107 27.4895 32.003C27.4899 32.5953 27.607 33.1818 27.834 33.7289C28.061 34.276 28.3936 34.773 28.8127 35.1915C29.2318 35.6101 29.7293 35.942 30.2767 36.1683C30.8241 36.3946 31.4107 36.5109 32.003 36.5105C33.1993 36.5097 34.3462 36.0337 35.1915 35.1873C36.0369 34.3408 36.5113 33.1933 36.5105 31.997C36.5097 30.8007 36.0337 29.6538 35.1873 28.8085C34.3408 27.9632 33.1933 27.4887 31.997 27.4895V27.4895ZM46.997 33.5H42.497V30.5H46.997V33.5ZM21.497 33.5H16.997V30.5H21.497V33.5ZM40.481 25.637L38.3615 23.5145L41.543 20.3315L43.6655 22.454L40.4825 25.6355L40.481 25.637V25.637ZM23.5115 25.637L20.3315 22.4555L22.454 20.3345L25.634 23.5175L23.513 25.6355V25.637H23.5115ZM33.497 21.5H30.497V17H33.497V21.5Z" fill="black"/>
</svg>
