<svg width="64" height="64" viewBox="0 0 64 64" fill="none" xmlns="http://www.w3.org/2000/svg">
<path d="M44.2801 28.1732C42.4016 23.2186 37.615 19.6953 32.0082 19.6953C26.4014 19.6953 21.6148 23.2145 19.7363 28.1691C16.2213 29.092 13.625 32.2912 13.625 36.1016C13.625 40.6338 17.2959 44.3047 21.824 44.3047H42.176C46.7041 44.3047 50.375 40.6338 50.375 36.1016C50.375 32.2994 47.7869 29.1002 44.2801 28.1732ZM45.7689 39.6986C45.2983 40.1721 44.7383 40.5474 44.1216 40.803C43.5049 41.0586 42.8436 41.1893 42.176 41.1875H21.824C20.4664 41.1875 19.1908 40.6584 18.2311 39.6986C17.7576 39.2272 17.3822 38.6665 17.1266 38.0491C16.8711 37.4317 16.7404 36.7698 16.7422 36.1016C16.7422 34.9531 17.1154 33.8744 17.8168 32.9721C18.5036 32.0979 19.4546 31.4692 20.5279 31.1797L22.0824 30.7736L22.6525 29.2725C23.0053 28.3373 23.4975 27.4637 24.1168 26.6721C24.7282 25.8875 25.4525 25.1978 26.266 24.6254C27.9518 23.44 29.9369 22.8125 32.0082 22.8125C34.0795 22.8125 36.0646 23.44 37.7504 24.6254C38.5666 25.1996 39.2885 25.8887 39.8996 26.6721C40.5189 27.4637 41.0111 28.3414 41.3639 29.2725L41.9299 30.7695L43.4803 31.1797C45.7074 31.7744 47.2578 33.7965 47.2578 36.1016C47.2578 37.4592 46.7287 38.7389 45.7689 39.6986Z" fill="black"/>
<path d="M12.451 36.667L10.33 34.546L13.51 31.363L15.6325 33.484L12.4525 36.6655V36.667H12.451ZM17.8317 31.363C15.8398 31.3622 18.0951 31.7177 16.6872 30.3086C15.2792 28.8995 14.4887 26.9889 14.4895 24.997C14.4903 23.0051 15.2824 21.0951 16.6914 19.6872C18.1005 18.2792 20.0111 17.4887 22.003 17.4895C22.9893 17.4899 23.9659 17.6845 24.8769 18.0624C25.788 18.4402 26.6157 18.9937 27.3129 19.6914C28.01 20.3891 28.5629 21.2173 28.94 22.1286C29.317 23.04 27.309 22.2904 27.3086 23.2767C25.2981 21.2737 26.5 23.5 25.5448 23.8688C25.167 24.7798 22.7007 28.8134 22.003 29.5105C21.3053 30.2076 19.7241 30.9859 18.8127 31.363C17.9014 31.7401 18.818 31.3634 17.8317 31.363ZM21.997 20.4895C21.4047 20.4899 20.8182 20.607 20.2711 20.834C19.7241 21.061 19.227 21.3936 18.8085 21.8127C18.3899 22.2318 18.058 22.7293 17.8317 23.2767C17.6054 23.8241 17.4891 24.4107 17.4895 25.003C17.4899 25.5953 17.607 26.1818 17.834 26.7289C18.061 27.276 18.3936 27.773 18.8127 28.1915C19.2318 28.6101 19.7293 28.942 20.2767 29.1683C20.8241 29.3946 21.4107 29.5109 22.003 29.5105C23.1993 29.5097 22.6517 27.5753 23.497 26.7289C24.3423 25.8824 25.5008 25.6963 25.5 24.5C25.4992 23.3037 26.0337 22.6538 25.1873 21.8085C24.3408 20.9632 23.1933 20.4887 21.997 20.4895ZM11.497 26.5H6.99701V23.5H11.497V26.5ZM30.481 18.637L28.3615 16.5145L31.543 13.3315L33.6655 15.454L30.4825 18.6355L30.481 18.637ZM13.5115 18.637L10.3315 15.4555L12.454 13.3345L15.634 16.5175L13.513 18.6355V18.637H13.5115ZM23.497 14.5H20.497V10H23.497V14.5Z" fill="black"/>
</svg>
