<svg width="64" height="64" viewBox="0 0 64 64" fill="none" xmlns="http://www.w3.org/2000/svg">
<path d="M44.2801 28.1732C42.4016 23.2186 37.615 19.6953 32.0082 19.6953C26.4014 19.6953 21.6148 23.2145 19.7363 28.1691C16.2213 29.092 13.625 32.2912 13.625 36.1016C13.625 40.6338 17.2959 44.3047 21.824 44.3047H42.176C46.7041 44.3047 50.375 40.6338 50.375 36.1016C50.375 32.2994 47.7869 29.1002 44.2801 28.1732ZM45.7689 39.6986C45.2983 40.1721 44.7383 40.5474 44.1216 40.803C43.5049 41.0586 42.8436 41.1893 42.176 41.1875H21.824C20.4664 41.1875 19.1908 40.6584 18.2311 39.6986C17.7576 39.2272 17.3822 38.6665 17.1266 38.0491C16.8711 37.4317 16.7404 36.7698 16.7422 36.1016C16.7422 34.9531 17.1154 33.8744 17.8168 32.9721C18.5036 32.0979 19.4546 31.4692 20.5279 31.1797L22.0824 30.7736L22.6525 29.2725C23.0053 28.3373 23.4975 27.4637 24.1168 26.6721C24.7282 25.8875 25.4525 25.1978 26.266 24.6254C27.9518 23.44 29.9369 22.8125 32.0082 22.8125C34.0795 22.8125 36.0646 23.44 37.7504 24.6254C38.5666 25.1996 39.2885 25.8887 39.8996 26.6721C40.5189 27.4637 41.0111 28.3414 41.3639 29.2725L41.9299 30.7695L43.4803 31.1797C45.7074 31.7744 47.2578 33.7965 47.2578 36.1016C47.2578 37.4592 46.7287 38.7389 45.7689 39.6986Z" fill="black"/>
</svg>
