<svg width="64" height="64" viewBox="0 0 64 64" fill="none" xmlns="http://www.w3.org/2000/svg">
<path d="M47.2801 30.1732C45.4016 25.2186 40.615 21.6953 35.0082 21.6953C29.4014 21.6953 24.6148 25.2145 22.7363 30.1691C19.2213 31.092 16.625 34.2912 16.625 38.1016C16.625 42.6338 20.2959 46.3047 24.824 46.3047H45.176C49.7041 46.3047 53.375 42.6338 53.375 38.1016C53.375 34.2994 50.7869 31.1002 47.2801 30.1732ZM48.7689 41.6986C48.2983 42.1721 47.7383 42.5474 47.1216 42.803C46.5049 43.0586 45.8436 43.1893 45.176 43.1875H24.824C23.4664 43.1875 22.1908 42.6584 21.2311 41.6986C20.7576 41.2272 20.3822 40.6665 20.1266 40.0491C19.8711 39.4317 19.7404 38.7698 19.7422 38.1016C19.7422 36.9531 20.1154 35.8744 20.8168 34.9721C21.5036 34.0979 22.4546 33.4692 23.5279 33.1797L25.0824 32.7736L25.6525 31.2725C26.0053 30.3373 26.4975 29.4637 27.1168 28.6721C27.7282 27.8875 28.4525 27.1978 29.266 26.6254C30.9518 25.44 32.9369 24.8125 35.0082 24.8125C37.0795 24.8125 39.0646 25.44 40.7504 26.6254C41.5666 27.1996 42.2885 27.8887 42.8996 28.6721C43.5189 29.4637 44.0111 30.3414 44.3639 31.2725L44.9299 32.7695L46.4803 33.1797C48.7074 33.7744 50.2578 35.7965 50.2578 38.1016C50.2578 39.4592 49.7287 40.7389 48.7689 41.6986Z" fill="black"/>
<path d="M15.451 38.667L13.33 36.546L16.51 33.363L18.6325 35.484L15.4525 38.6655V38.667H15.451ZM20.8317 33.363C18.8398 33.3622 21.0951 33.7177 19.6872 32.3086C18.2792 30.8995 17.4887 28.9889 17.4895 26.997C17.4903 25.0051 18.2824 23.0951 19.6914 21.6872C21.1005 20.2792 23.0111 19.4887 25.003 19.4895C25.9893 19.4899 26.9659 19.6845 27.8769 20.0624C28.788 20.4402 29.6157 20.9937 30.3129 21.6914C31.01 22.3891 31.5629 23.2173 31.94 24.1286C32.317 25.04 30.309 24.2904 30.3086 25.2767C28.2981 23.2737 29.5 25.5 28.5448 25.8688C28.167 26.7798 25.7007 30.8134 25.003 31.5105C24.3053 32.2076 22.7241 32.9859 21.8127 33.363C20.9014 33.7401 21.818 33.3634 20.8317 33.363ZM24.997 22.4895C24.4047 22.4899 23.8182 22.607 23.2711 22.834C22.7241 23.061 22.227 23.3936 21.8085 23.8127C21.3899 24.2318 21.058 24.7293 20.8317 25.2767C20.6054 25.8241 20.4891 26.4107 20.4895 27.003C20.4899 27.5953 20.607 28.1818 20.834 28.7289C21.061 29.276 21.3936 29.773 21.8127 30.1915C22.2318 30.6101 22.7293 30.942 23.2767 31.1683C23.8241 31.3946 24.4107 31.5109 25.003 31.5105C26.1993 31.5097 25.6517 29.5753 26.497 28.7289C27.3423 27.8824 28.5008 27.6963 28.5 26.5C28.4992 25.3037 29.0337 24.6538 28.1873 23.8085C27.3408 22.9632 26.1933 22.4887 24.997 22.4895ZM14.497 28.5H9.99701V25.5H14.497V28.5ZM33.481 20.637L31.3615 18.5145L34.543 15.3315L36.6655 17.454L33.4825 20.6355L33.481 20.637ZM16.5115 20.637L13.3315 17.4555L15.454 15.3345L18.634 18.5175L16.513 20.6355V20.637H16.5115ZM26.497 16.5H23.497V12H26.497V16.5Z" fill="black"/>
<path d="M33.5 50.5L29 59" stroke="black" stroke-width="2.5"/>
<path d="M39.5 51L35 59.5" stroke="black" stroke-width="2.5"/>
</svg>
