<svg width="64" height="64" viewBox="0 0 64 64" fill="none" xmlns="http://www.w3.org/2000/svg">
<path d="M38.7477 55.1186L39.1236 54.9107L38.708 54.1586L38.332 54.3664C38.0437 54.5259 37.7883 54.7387 37.5793 54.9934L35.8594 54L37.5795 53.0066C37.7885 53.2613 38.0439 53.4741 38.3322 53.6336L38.7082 53.8414L39.1238 53.0893L38.7479 52.8814C38.5969 52.7981 38.4591 52.6928 38.3391 52.5689L39.375 51.9697L38.9453 51.2266L37.9102 51.8238C37.8627 51.6578 37.8402 51.4857 37.8434 51.3131L37.8514 50.8834L36.992 50.8674L36.984 51.2971C36.9779 51.6262 37.0342 51.9535 37.1498 52.2617L35.4297 53.2557V51.2691C35.7547 51.2154 36.0666 51.1005 36.3488 50.9307L36.7168 50.709L36.2732 49.9729L35.9053 50.1945C35.7574 50.2835 35.5971 50.35 35.4297 50.392V49.3125H34.5703V50.392C34.4029 50.35 34.2426 50.2835 34.0947 50.1945L33.7268 49.9729L33.2832 50.709L33.6512 50.9307C33.9334 51.1005 34.2453 51.2154 34.5703 51.2691V53.2557L32.8502 52.2617C32.9662 51.9533 33.0227 51.6257 33.0168 51.2963L33.0088 50.8666L32.1494 50.8826L32.1574 51.3123C32.1606 51.4849 32.1381 51.6571 32.0906 51.823L31.0547 51.2266L30.625 51.9707L31.6611 52.5691C31.5411 52.693 31.4033 52.7983 31.2523 52.8816L30.8764 53.0893L31.292 53.8414L31.668 53.6336C31.9563 53.4741 32.2117 53.2613 32.4207 53.0066L34.1406 54L32.4205 54.9934C32.2115 54.7387 31.9561 54.5259 31.6678 54.3664L31.292 54.1586L30.8764 54.9107L31.2523 55.1186C31.4033 55.2019 31.5411 55.3072 31.6611 55.4311L30.625 56.0312L31.0547 56.7754L32.0908 56.1771C32.1383 56.3431 32.1608 56.5153 32.1576 56.6879L32.1496 57.1176L33.009 57.1336L33.017 56.7039C33.0229 56.3744 32.9663 56.0467 32.8502 55.7383L34.5703 54.7443V56.7309C34.2453 56.7846 33.9334 56.8995 33.6512 57.0693L33.2832 57.291L33.7268 58.0271L34.0947 57.8055C34.2426 57.7165 34.4029 57.65 34.5703 57.608V58.6875H35.4297V57.608C35.5971 57.65 35.7574 57.7165 35.9053 57.8055L36.2732 58.0271L36.7168 57.291L36.3488 57.0693C36.0666 56.8995 35.7547 56.7846 35.4297 56.7309V54.7443L37.1498 55.7383C37.0338 56.0467 36.9773 56.3743 36.9832 56.7037L36.9912 57.1334L37.8506 57.1174L37.8426 56.6877C37.8396 56.5148 37.8623 56.3424 37.9102 56.1762L38.9453 56.7744L39.375 56.0312L38.3398 55.4318C38.4595 55.3078 38.597 55.2023 38.7477 55.1186V55.1186Z" fill="black"/>
<path d="M47.2801 28.1732C45.4016 23.2186 40.615 19.6953 35.0082 19.6953C29.4014 19.6953 24.6148 23.2145 22.7363 28.1691C19.2213 29.092 16.625 32.2912 16.625 36.1016C16.625 40.6338 20.2959 44.3047 24.824 44.3047H45.176C49.7041 44.3047 53.375 40.6338 53.375 36.1016C53.375 32.2994 50.7869 29.1002 47.2801 28.1732ZM48.7689 39.6986C48.2983 40.1721 47.7383 40.5474 47.1216 40.803C46.5049 41.0586 45.8436 41.1893 45.176 41.1875H24.824C23.4664 41.1875 22.1908 40.6584 21.2311 39.6986C20.7576 39.2272 20.3822 38.6665 20.1266 38.0491C19.8711 37.4317 19.7404 36.7698 19.7422 36.1016C19.7422 34.9531 20.1154 33.8744 20.8168 32.9721C21.5036 32.0979 22.4546 31.4692 23.5279 31.1797L25.0824 30.7736L25.6525 29.2725C26.0053 28.3373 26.4975 27.4637 27.1168 26.6721C27.7282 25.8875 28.4525 25.1978 29.266 24.6254C30.9518 23.44 32.9369 22.8125 35.0082 22.8125C37.0795 22.8125 39.0646 23.44 40.7504 24.6254C41.5666 25.1996 42.2885 25.8887 42.8996 26.6721C43.5189 27.4637 44.0111 28.3414 44.3639 29.2725L44.9299 30.7695L46.4803 31.1797C48.7074 31.7744 50.2578 33.7965 50.2578 36.1016C50.2578 37.4592 49.7287 38.7389 48.7689 39.6986Z" fill="black"/>
<path d="M15.451 36.667L13.33 34.546L16.51 31.363L18.6325 33.484L15.4525 36.6655V36.667H15.451ZM20.8317 31.363C18.8398 31.3622 21.0951 31.7177 19.6872 30.3086C18.2792 28.8995 17.4887 26.9889 17.4895 24.997C17.4903 23.0051 18.2824 21.0951 19.6914 19.6872C21.1005 18.2792 23.0111 17.4887 25.003 17.4895C25.9893 17.4899 26.9659 17.6845 27.8769 18.0624C28.788 18.4402 29.6157 18.9937 30.3129 19.6914C31.01 20.3891 31.5629 21.2173 31.94 22.1286C32.317 23.04 30.309 22.2904 30.3086 23.2767C28.2981 21.2737 29.5 23.5 28.5448 23.8688C28.167 24.7798 25.7007 28.8134 25.003 29.5105C24.3053 30.2076 22.7241 30.9859 21.8127 31.363C20.9014 31.7401 21.818 31.3634 20.8317 31.363ZM24.997 20.4895C24.4047 20.4899 23.8182 20.607 23.2711 20.834C22.7241 21.061 22.227 21.3936 21.8085 21.8127C21.3899 22.2318 21.058 22.7293 20.8317 23.2767C20.6054 23.8241 20.4891 24.4107 20.4895 25.003C20.4899 25.5953 20.607 26.1818 20.834 26.7289C21.061 27.276 21.3936 27.773 21.8127 28.1915C22.2318 28.6101 22.7293 28.942 23.2767 29.1683C23.8241 29.3946 24.4107 29.5109 25.003 29.5105C26.1993 29.5097 25.6517 27.5753 26.497 26.7289C27.3423 25.8824 28.5008 25.6963 28.5 24.5C28.4992 23.3037 29.0337 22.6538 28.1873 21.8085C27.3408 20.9632 26.1933 20.4887 24.997 20.4895ZM14.497 26.5H9.99701V23.5H14.497V26.5ZM33.481 18.637L31.3615 16.5145L34.543 13.3315L36.6655 15.454L33.4825 18.6355L33.481 18.637ZM16.5115 18.637L13.3315 15.4555L15.454 13.3345L18.634 16.5175L16.513 18.6355V18.637H16.5115ZM26.497 14.5H23.497V10H26.497V14.5Z" fill="black"/>
</svg>
