<svg width="64" height="64" viewBox="0 0 64 64" fill="none" xmlns="http://www.w3.org/2000/svg">
<path d="M47.2801 28.1732C45.4016 23.2186 40.615 19.6953 35.0082 19.6953C29.4014 19.6953 24.6148 23.2145 22.7363 28.1691C19.2213 29.092 16.625 32.2912 16.625 36.1016C16.625 40.6338 20.2959 44.3047 24.824 44.3047H45.176C49.7041 44.3047 53.375 40.6338 53.375 36.1016C53.375 32.2994 50.7869 29.1002 47.2801 28.1732ZM48.7689 39.6986C48.2983 40.1721 47.7383 40.5474 47.1216 40.803C46.5049 41.0586 45.8436 41.1893 45.176 41.1875H24.824C23.4664 41.1875 22.1908 40.6584 21.2311 39.6986C20.7576 39.2272 20.3822 38.6665 20.1266 38.0491C19.8711 37.4317 19.7404 36.7698 19.7422 36.1016C19.7422 34.9531 20.1154 33.8744 20.8168 32.9721C21.5036 32.0979 22.4546 31.4692 23.5279 31.1797L25.0824 30.7736L25.6525 29.2725C26.0053 28.3373 26.4975 27.4637 27.1168 26.6721C27.7282 25.8875 28.4525 25.1978 29.266 24.6254C30.9518 23.44 32.9369 22.8125 35.0082 22.8125C37.0795 22.8125 39.0646 23.44 40.7504 24.6254C41.5666 25.1996 42.2885 25.8887 42.8996 26.6721C43.5189 27.4637 44.0111 28.3414 44.3639 29.2725L44.9299 30.7695L46.4803 31.1797C48.7074 31.7744 50.2578 33.7965 50.2578 36.1016C50.2578 37.4592 49.7287 38.7389 48.7689 39.6986Z" fill="black"/>
<path d="M15.4509 36.667L13.3299 34.546L16.5099 31.363L18.6324 33.484L15.4524 36.6655V36.667H15.4509ZM20.8316 31.363C18.8397 31.3622 21.095 31.7177 19.6871 30.3086C18.2792 28.8995 17.4887 26.9889 17.4894 24.997C17.4902 23.0051 18.2823 21.0951 19.6913 19.6872C21.1004 18.2792 23.011 17.4887 25.0029 17.4895C25.9892 17.4899 26.9658 17.6845 27.8769 18.0624C28.7879 18.4402 29.6157 18.9937 30.3128 19.6914C31.0099 20.3891 31.5628 21.2173 31.9399 22.1286C32.317 23.04 30.3089 22.2904 30.3086 23.2767C28.298 21.2737 29.4999 23.5 28.5448 23.8688C28.167 24.7798 25.7006 28.8134 25.0029 29.5105C24.3053 30.2076 22.724 30.9859 21.8127 31.363C20.9013 31.7401 21.8179 31.3634 20.8316 31.363ZM24.9969 20.4895C24.4046 20.4899 23.8182 20.607 23.2711 20.834C22.724 21.061 22.227 21.3936 21.8084 21.8127C21.3899 22.2318 21.058 22.7293 20.8316 23.2767C20.6053 23.8241 20.4891 24.4107 20.4894 25.003C20.4898 25.5953 20.6069 26.1818 20.8339 26.7289C21.061 27.276 21.3935 27.773 21.8127 28.1915C22.2318 28.6101 22.7292 28.942 23.2766 29.1683C23.824 29.3946 24.4106 29.5109 25.0029 29.5105C26.1992 29.5097 25.6516 27.5753 26.4969 26.7289C27.3423 25.8824 28.5007 25.6963 28.4999 24.5C28.4991 23.3037 29.0337 22.6538 28.1872 21.8085C27.3408 20.9632 26.1932 20.4887 24.9969 20.4895ZM14.4969 26.5H9.99695V23.5H14.4969V26.5ZM33.4809 18.637L31.3614 16.5145L34.5429 13.3315L36.6655 15.454L33.4824 18.6355L33.4809 18.637ZM16.5114 18.637L13.3314 15.4555L15.4539 13.3345L18.6339 16.5175L16.5129 18.6355V18.637H16.5114ZM26.4969 14.5H23.4969V10H26.4969V14.5Z" fill="black"/>
<path d="M28.5 48.5L24 57" stroke="black" stroke-width="2.5"/>
<path d="M34.5 49L30 57.5" stroke="black" stroke-width="2.5"/>
<path d="M45.7477 54.1186L46.1236 53.9107L45.708 53.1586L45.332 53.3664C45.0437 53.5259 44.7883 53.7387 44.5793 53.9934L42.8594 53L44.5795 52.0066C44.7885 52.2613 45.0439 52.4741 45.3322 52.6336L45.7082 52.8414L46.1238 52.0893L45.7479 51.8814C45.5969 51.7981 45.4591 51.6928 45.3391 51.5689L46.375 50.9697L45.9453 50.2266L44.9102 50.8238C44.8627 50.6578 44.8402 50.4857 44.8434 50.3131L44.8514 49.8834L43.992 49.8674L43.984 50.2971C43.9779 50.6262 44.0342 50.9535 44.1498 51.2617L42.4297 52.2557V50.2691C42.7547 50.2154 43.0666 50.1005 43.3488 49.9307L43.7168 49.709L43.2732 48.9729L42.9053 49.1945C42.7574 49.2835 42.5971 49.35 42.4297 49.392V48.3125H41.5703V49.392C41.4029 49.35 41.2426 49.2835 41.0947 49.1945L40.7268 48.9729L40.2832 49.709L40.6512 49.9307C40.9334 50.1005 41.2453 50.2154 41.5703 50.2691V52.2557L39.8502 51.2617C39.9662 50.9533 40.0227 50.6257 40.0168 50.2963L40.0088 49.8666L39.1494 49.8826L39.1574 50.3123C39.1606 50.4849 39.1381 50.6571 39.0906 50.823L38.0547 50.2266L37.625 50.9707L38.6611 51.5691C38.5411 51.693 38.4033 51.7983 38.2523 51.8816L37.8764 52.0893L38.292 52.8414L38.668 52.6336C38.9563 52.4741 39.2117 52.2613 39.4207 52.0066L41.1406 53L39.4205 53.9934C39.2115 53.7387 38.9561 53.5259 38.6678 53.3664L38.292 53.1586L37.8764 53.9107L38.2523 54.1186C38.4033 54.2019 38.5411 54.3072 38.6611 54.4311L37.625 55.0312L38.0547 55.7754L39.0908 55.1771C39.1383 55.3431 39.1608 55.5153 39.1576 55.6879L39.1496 56.1176L40.009 56.1336L40.017 55.7039C40.0229 55.3744 39.9663 55.0467 39.8502 54.7383L41.5703 53.7443V55.7309C41.2453 55.7846 40.9334 55.8995 40.6512 56.0693L40.2832 56.291L40.7268 57.0271L41.0947 56.8055C41.2426 56.7165 41.4029 56.65 41.5703 56.608V57.6875H42.4297V56.608C42.5971 56.65 42.7574 56.7165 42.9053 56.8055L43.2732 57.0271L43.7168 56.291L43.3488 56.0693C43.0666 55.8995 42.7547 55.7846 42.4297 55.7309V53.7443L44.1498 54.7383C44.0338 55.0467 43.9773 55.3743 43.9832 55.7037L43.9912 56.1334L44.8506 56.1174L44.8426 55.6877C44.8396 55.5148 44.8623 55.3424 44.9102 55.1762L45.9453 55.7744L46.375 55.0312L45.3398 54.4318C45.4595 54.3078 45.597 54.2023 45.7477 54.1186V54.1186Z" fill="black"/>
</svg>
