<svg width="64" height="64" viewBox="0 0 64 64" fill="none" xmlns="http://www.w3.org/2000/svg">
<path d="M47.2801 30.1732C45.4016 25.2186 40.615 21.6953 35.0082 21.6953C29.4014 21.6953 24.6148 25.2145 22.7363 30.1691C19.2213 31.092 16.625 34.2912 16.625 38.1016C16.625 42.6338 20.2959 46.3047 24.824 46.3047H45.176C49.7041 46.3047 53.375 42.6338 53.375 38.1016C53.375 34.2994 50.7869 31.1002 47.2801 30.1732ZM48.7689 41.6986C48.2983 42.1721 47.7383 42.5474 47.1216 42.803C46.5049 43.0586 45.8436 43.1893 45.176 43.1875H24.824C23.4664 43.1875 22.1908 42.6584 21.2311 41.6986C20.7576 41.2272 20.3822 40.6665 20.1266 40.0491C19.8711 39.4317 19.7404 38.7698 19.7422 38.1016C19.7422 36.9531 20.1154 35.8744 20.8168 34.9721C21.5036 34.0979 22.4546 33.4692 23.5279 33.1797L25.0824 32.7736L25.6525 31.2725C26.0053 30.3373 26.4975 29.4637 27.1168 28.6721C27.7282 27.8875 28.4525 27.1978 29.266 26.6254C30.9518 25.44 32.9369 24.8125 35.0082 24.8125C37.0795 24.8125 39.0646 25.44 40.7504 26.6254C41.5666 27.1996 42.2885 27.8887 42.8996 28.6721C43.5189 29.4637 44.0111 30.3414 44.3639 31.2725L44.9299 32.7695L46.4803 33.1797C48.7074 33.7744 50.2578 35.7965 50.2578 38.1016C50.2578 39.4592 49.7287 40.7389 48.7689 41.6986Z" fill="black"/>
<path d="M15.4509 38.667L13.3299 36.546L16.5099 33.363L18.6324 35.484L15.4524 38.6655V38.667H15.4509ZM20.8316 33.363C18.8397 33.3622 21.095 33.7177 19.6871 32.3086C18.2792 30.8995 17.4887 28.9889 17.4894 26.997C17.4902 25.0051 18.2823 23.0951 19.6913 21.6872C21.1004 20.2792 23.011 19.4887 25.0029 19.4895C25.9892 19.4899 26.9658 19.6845 27.8769 20.0624C28.7879 20.4402 29.6157 20.9937 30.3128 21.6914C31.0099 22.3891 31.5628 23.2173 31.9399 24.1286C32.317 25.04 30.3089 24.2904 30.3086 25.2767C28.298 23.2737 29.4999 25.5 28.5448 25.8688C28.167 26.7798 25.7006 30.8134 25.0029 31.5105C24.3053 32.2076 22.724 32.9859 21.8127 33.363C20.9013 33.7401 21.8179 33.3634 20.8316 33.363ZM24.9969 22.4895C24.4046 22.4899 23.8182 22.607 23.2711 22.834C22.724 23.061 22.227 23.3936 21.8084 23.8127C21.3899 24.2318 21.058 24.7293 20.8316 25.2767C20.6053 25.8241 20.4891 26.4107 20.4894 27.003C20.4898 27.5953 20.6069 28.1818 20.8339 28.7289C21.061 29.276 21.3935 29.773 21.8127 30.1915C22.2318 30.6101 22.7292 30.942 23.2766 31.1683C23.824 31.3946 24.4106 31.5109 25.0029 31.5105C26.1992 31.5097 25.6516 29.5753 26.4969 28.7289C27.3423 27.8824 28.5007 27.6963 28.4999 26.5C28.4991 25.3037 29.0337 24.6538 28.1872 23.8085C27.3408 22.9632 26.1932 22.4887 24.9969 22.4895ZM14.4969 28.5H9.99695V25.5H14.4969V28.5ZM33.4809 20.637L31.3614 18.5145L34.5429 15.3315L36.6655 17.454L33.4824 20.6355L33.4809 20.637ZM16.5114 20.637L13.3314 17.4555L15.4539 15.3345L18.6339 18.5175L16.5129 20.6355V20.637H16.5114ZM26.4969 16.5H23.4969V12H26.4969V16.5Z" fill="black"/>
<path d="M38.5 38.5L35.5 46H38.5L35.5 51.5H38.5L35.5 57.5" stroke="black" stroke-width="2.5"/>
</svg>
