<svg width="64" height="64" viewBox="0 0 64 64" fill="none" xmlns="http://www.w3.org/2000/svg">
<path d="M44.2801 24.1732C42.4016 19.2186 37.615 15.6953 32.0082 15.6953C26.4014 15.6953 21.6148 19.2145 19.7363 24.1691C16.2213 25.092 13.625 28.2912 13.625 32.1016C13.625 36.6338 17.2959 40.3047 21.824 40.3047H42.176C46.7041 40.3047 50.375 36.6338 50.375 32.1016C50.375 28.2994 47.7869 25.1002 44.2801 24.1732ZM45.7689 35.6986C45.2983 36.1721 44.7383 36.5474 44.1216 36.803C43.5049 37.0586 42.8436 37.1893 42.176 37.1875H21.824C20.4664 37.1875 19.1908 36.6584 18.2311 35.6986C17.7576 35.2272 17.3822 34.6665 17.1266 34.0491C16.8711 33.4317 16.7404 32.7698 16.7422 32.1016C16.7422 30.9531 17.1154 29.8744 17.8168 28.9721C18.5036 28.0979 19.4546 27.4692 20.5279 27.1797L22.0824 26.7736L22.6525 25.2725C23.0053 24.3373 23.4975 23.4637 24.1168 22.6721C24.7282 21.8875 25.4525 21.1978 26.266 20.6254C27.9518 19.44 29.9369 18.8125 32.0082 18.8125C34.0795 18.8125 36.0646 19.44 37.7504 20.6254C38.5666 21.1996 39.2885 21.8887 39.8996 22.6721C40.5189 23.4637 41.0111 24.3414 41.3639 25.2725L41.9299 26.7695L43.4803 27.1797C45.7074 27.7744 47.2578 29.7965 47.2578 32.1016C47.2578 33.4592 46.7287 34.7389 45.7689 35.6986Z" fill="black"/>
<rect x="32" y="48" width="14" height="2" fill="black"/>
<rect x="32" y="52" width="10" height="2" fill="black"/>
<path d="M27.7477 52.1186L28.1236 51.9107L27.708 51.1586L27.332 51.3664C27.0437 51.5259 26.7883 51.7387 26.5793 51.9934L24.8594 51L26.5795 50.0066C26.7885 50.2613 27.0439 50.4741 27.3322 50.6336L27.7082 50.8414L28.1238 50.0893L27.7479 49.8814C27.5969 49.7981 27.4591 49.6928 27.3391 49.5689L28.375 48.9697L27.9453 48.2266L26.9102 48.8238C26.8627 48.6578 26.8402 48.4857 26.8434 48.3131L26.8514 47.8834L25.992 47.8674L25.984 48.2971C25.9779 48.6262 26.0342 48.9535 26.1498 49.2617L24.4297 50.2557V48.2691C24.7547 48.2154 25.0666 48.1005 25.3488 47.9307L25.7168 47.709L25.2732 46.9729L24.9053 47.1945C24.7574 47.2835 24.5971 47.35 24.4297 47.392V46.3125H23.5703V47.392C23.4029 47.35 23.2426 47.2835 23.0947 47.1945L22.7268 46.9729L22.2832 47.709L22.6512 47.9307C22.9334 48.1005 23.2453 48.2154 23.5703 48.2691V50.2557L21.8502 49.2617C21.9662 48.9533 22.0227 48.6257 22.0168 48.2963L22.0088 47.8666L21.1494 47.8826L21.1574 48.3123C21.1606 48.4849 21.1381 48.6571 21.0906 48.823L20.0547 48.2266L19.625 48.9707L20.6611 49.5691C20.5411 49.693 20.4033 49.7983 20.2523 49.8816L19.8764 50.0893L20.292 50.8414L20.668 50.6336C20.9563 50.4741 21.2117 50.2613 21.4207 50.0066L23.1406 51L21.4205 51.9934C21.2115 51.7387 20.9561 51.5259 20.6678 51.3664L20.292 51.1586L19.8764 51.9107L20.2523 52.1186C20.4033 52.2019 20.5411 52.3072 20.6611 52.4311L19.625 53.0312L20.0547 53.7754L21.0908 53.1771C21.1383 53.3431 21.1608 53.5153 21.1576 53.6879L21.1496 54.1176L22.009 54.1336L22.017 53.7039C22.0229 53.3744 21.9663 53.0467 21.8502 52.7383L23.5703 51.7443V53.7309C23.2453 53.7846 22.9334 53.8995 22.6512 54.0693L22.2832 54.291L22.7268 55.0271L23.0947 54.8055C23.2426 54.7165 23.4029 54.65 23.5703 54.608V55.6875H24.4297V54.608C24.5971 54.65 24.7574 54.7165 24.9053 54.8055L25.2732 55.0271L25.7168 54.291L25.3488 54.0693C25.0666 53.8995 24.7547 53.7846 24.4297 53.7309V51.7443L26.1498 52.7383C26.0338 53.0467 25.9773 53.3743 25.9832 53.7037L25.9912 54.1334L26.8506 54.1174L26.8426 53.6877C26.8396 53.5148 26.8623 53.3424 26.9102 53.1762L27.9453 53.7744L28.375 53.0312L27.3398 52.4318C27.4595 52.3078 27.597 52.2023 27.7477 52.1186V52.1186Z" fill="black"/>
</svg>
