<svg width="64" height="64" viewBox="0 0 64 64" fill="none" xmlns="http://www.w3.org/2000/svg">
<path d="M44.2801 24.1732C42.4016 19.2186 37.615 15.6953 32.0082 15.6953C26.4014 15.6953 21.6148 19.2145 19.7363 24.1691C16.2213 25.092 13.625 28.2912 13.625 32.1016C13.625 36.6338 17.2959 40.3047 21.824 40.3047H42.176C46.7041 40.3047 50.375 36.6338 50.375 32.1016C50.375 28.2994 47.7869 25.1002 44.2801 24.1732ZM45.7689 35.6986C45.2983 36.1721 44.7383 36.5474 44.1216 36.803C43.5049 37.0586 42.8436 37.1893 42.176 37.1875H21.824C20.4664 37.1875 19.1908 36.6584 18.2311 35.6986C17.7576 35.2272 17.3822 34.6665 17.1266 34.0491C16.8711 33.4317 16.7404 32.7698 16.7422 32.1016C16.7422 30.9531 17.1154 29.8744 17.8168 28.9721C18.5036 28.0979 19.4546 27.4692 20.5279 27.1797L22.0824 26.7736L22.6525 25.2725C23.0053 24.3373 23.4975 23.4637 24.1168 22.6721C24.7282 21.8875 25.4525 21.1978 26.266 20.6254C27.9518 19.44 29.9369 18.8125 32.0082 18.8125C34.0795 18.8125 36.0646 19.44 37.7504 20.6254C38.5666 21.1996 39.2885 21.8887 39.8996 22.6721C40.5189 23.4637 41.0111 24.3414 41.3639 25.2725L41.9299 26.7695L43.4803 27.1797C45.7074 27.7744 47.2578 29.7965 47.2578 32.1016C47.2578 33.4592 46.7287 34.7389 45.7689 35.6986Z" fill="black"/>
<rect x="36" y="48" width="14" height="2" fill="black"/>
<rect x="36" y="52" width="10" height="2" fill="black"/>
<path d="M31.7477 52.1186L32.1236 51.9107L31.708 51.1586L31.332 51.3664C31.0437 51.5259 30.7883 51.7387 30.5793 51.9934L28.8594 51L30.5795 50.0066C30.7885 50.2613 31.0439 50.4741 31.3322 50.6336L31.7082 50.8414L32.1238 50.0893L31.7479 49.8814C31.5969 49.7981 31.4591 49.6928 31.3391 49.5689L32.375 48.9697L31.9453 48.2266L30.9102 48.8238C30.8627 48.6578 30.8402 48.4857 30.8434 48.3131L30.8514 47.8834L29.992 47.8674L29.984 48.2971C29.9779 48.6262 30.0342 48.9535 30.1498 49.2617L28.4297 50.2557V48.2691C28.7547 48.2154 29.0666 48.1005 29.3488 47.9307L29.7168 47.709L29.2732 46.9729L28.9053 47.1945C28.7574 47.2835 28.5971 47.35 28.4297 47.392V46.3125H27.5703V47.392C27.4029 47.35 27.2426 47.2835 27.0947 47.1945L26.7268 46.9729L26.2832 47.709L26.6512 47.9307C26.9334 48.1005 27.2453 48.2154 27.5703 48.2691V50.2557L25.8502 49.2617C25.9662 48.9533 26.0227 48.6257 26.0168 48.2963L26.0088 47.8666L25.1494 47.8826L25.1574 48.3123C25.1606 48.4849 25.1381 48.6571 25.0906 48.823L24.0547 48.2266L23.625 48.9707L24.6611 49.5691C24.5411 49.693 24.4033 49.7983 24.2523 49.8816L23.8764 50.0893L24.292 50.8414L24.668 50.6336C24.9563 50.4741 25.2117 50.2613 25.4207 50.0066L27.1406 51L25.4205 51.9934C25.2115 51.7387 24.9561 51.5259 24.6678 51.3664L24.292 51.1586L23.8764 51.9107L24.2523 52.1186C24.4033 52.2019 24.5411 52.3072 24.6611 52.4311L23.625 53.0312L24.0547 53.7754L25.0908 53.1771C25.1383 53.3431 25.1608 53.5153 25.1576 53.6879L25.1496 54.1176L26.009 54.1336L26.017 53.7039C26.0229 53.3744 25.9663 53.0467 25.8502 52.7383L27.5703 51.7443V53.7309C27.2453 53.7846 26.9334 53.8995 26.6512 54.0693L26.2832 54.291L26.7268 55.0271L27.0947 54.8055C27.2426 54.7165 27.4029 54.65 27.5703 54.608V55.6875H28.4297V54.608C28.5971 54.65 28.7574 54.7165 28.9053 54.8055L29.2732 55.0271L29.7168 54.291L29.3488 54.0693C29.0666 53.8995 28.7547 53.7846 28.4297 53.7309V51.7443L30.1498 52.7383C30.0338 53.0467 29.9773 53.3743 29.9832 53.7037L29.9912 54.1334L30.8506 54.1174L30.8426 53.6877C30.8396 53.5148 30.8623 53.3424 30.9102 53.1762L31.9453 53.7744L32.375 53.0312L31.3398 52.4318C31.4595 52.3078 31.597 52.2023 31.7477 52.1186V52.1186Z" fill="black"/>
<path d="M22.1227 51.8061L22.4986 51.5982L22.083 50.8461L21.707 51.0539C21.4187 51.2134 21.1633 51.4262 20.9543 51.6809L19.2344 50.6875L20.9545 49.6941C21.1635 49.9488 21.4189 50.1616 21.7072 50.3211L22.0832 50.5289L22.4988 49.7768L22.1229 49.5689C21.9719 49.4856 21.8341 49.3803 21.7141 49.2564L22.75 48.6572L22.3203 47.9141L21.2852 48.5113C21.2377 48.3453 21.2152 48.1732 21.2184 48.0006L21.2264 47.5709L20.367 47.5549L20.359 47.9846C20.3529 48.3137 20.4092 48.641 20.5248 48.9492L18.8047 49.9432V47.9566C19.1297 47.9029 19.4416 47.788 19.7238 47.6182L20.0918 47.3965L19.6482 46.6604L19.2803 46.882C19.1324 46.971 18.9721 47.0375 18.8047 47.0795V46H17.9453V47.0795C17.7779 47.0375 17.6176 46.971 17.4697 46.882L17.1018 46.6604L16.6582 47.3965L17.0262 47.6182C17.3084 47.788 17.6203 47.9029 17.9453 47.9566V49.9432L16.2252 48.9492C16.3412 48.6408 16.3977 48.3132 16.3918 47.9838L16.3838 47.5541L15.5244 47.5701L15.5324 47.9998C15.5356 48.1724 15.5131 48.3446 15.4656 48.5105L14.4297 47.9141L14 48.6582L15.0361 49.2566C14.9161 49.3805 14.7783 49.4858 14.6273 49.5691L14.2514 49.7768L14.667 50.5289L15.043 50.3211C15.3313 50.1616 15.5867 49.9488 15.7957 49.6941L17.5156 50.6875L15.7955 51.6809C15.5865 51.4262 15.3311 51.2134 15.0428 51.0539L14.667 50.8461L14.2514 51.5982L14.6273 51.8061C14.7783 51.8894 14.9161 51.9947 15.0361 52.1186L14 52.7188L14.4297 53.4629L15.4658 52.8646C15.5133 53.0306 15.5358 53.2028 15.5326 53.3754L15.5246 53.8051L16.384 53.8211L16.392 53.3914C16.3979 53.0619 16.3413 52.7342 16.2252 52.4258L17.9453 51.4318V53.4184C17.6203 53.4721 17.3084 53.587 17.0262 53.7568L16.6582 53.9785L17.1018 54.7146L17.4697 54.493C17.6176 54.404 17.7779 54.3375 17.9453 54.2955V55.375H18.8047V54.2955C18.9721 54.3375 19.1324 54.404 19.2803 54.493L19.6482 54.7146L20.0918 53.9785L19.7238 53.7568C19.4416 53.587 19.1297 53.4721 18.8047 53.4184V51.4318L20.5248 52.4258C20.4088 52.7342 20.3523 53.0618 20.3582 53.3912L20.3662 53.8209L21.2256 53.8049L21.2176 53.3752C21.2146 53.2023 21.2373 53.0299 21.2852 52.8637L22.3203 53.4619L22.75 52.7188L21.7148 52.1193C21.8345 51.9953 21.972 51.8898 22.1227 51.8061V51.8061Z" fill="black"/>
</svg>
