<svg width="64" height="64" viewBox="0 0 64 64" fill="none" xmlns="http://www.w3.org/2000/svg">
<path d="M44.2801 26.1732C42.4016 21.2186 37.615 17.6953 32.0082 17.6953C26.4014 17.6953 21.6148 21.2145 19.7363 26.1691C16.2213 27.092 13.625 30.2912 13.625 34.1016C13.625 38.6338 17.2959 42.3047 21.824 42.3047H42.176C46.7041 42.3047 50.375 38.6338 50.375 34.1016C50.375 30.2994 47.7869 27.1002 44.2801 26.1732ZM45.7689 37.6986C45.2983 38.1721 44.7383 38.5474 44.1216 38.803C43.5049 39.0586 42.8436 39.1893 42.176 39.1875H21.824C20.4664 39.1875 19.1908 38.6584 18.2311 37.6986C17.7576 37.2272 17.3822 36.6665 17.1266 36.0491C16.8711 35.4317 16.7404 34.7698 16.7422 34.1016C16.7422 32.9531 17.1154 31.8744 17.8168 30.9721C18.5036 30.0979 19.4546 29.4692 20.5279 29.1797L22.0824 28.7736L22.6525 27.2725C23.0053 26.3373 23.4975 25.4637 24.1168 24.6721C24.7282 23.8875 25.4525 23.1978 26.266 22.6254C27.9518 21.44 29.9369 20.8125 32.0082 20.8125C34.0795 20.8125 36.0646 21.44 37.7504 22.6254C38.5666 23.1996 39.2885 23.8887 39.8996 24.6721C40.5189 25.4637 41.0111 26.3414 41.3639 27.2725L41.9299 28.7695L43.4803 29.1797C45.7074 29.7744 47.2578 31.7965 47.2578 34.1016C47.2578 35.4592 46.7287 36.7389 45.7689 37.6986Z" fill="black"/>
<path d="M22.0225 51.25H22.9775L22.632 51.941L22.5 52.2049L22.0225 51.25Z" stroke="black" stroke-width="2.5"/>
<path d="M31.5 50L29 55" stroke="black" stroke-width="2.5"/>
<path d="M38 50L35.5 55" stroke="black" stroke-width="2.5"/>
<path d="M44.5 50L42 55" stroke="black" stroke-width="2.5"/>
</svg>
