<svg width="64" height="64" viewBox="0 0 64 64" fill="none" xmlns="http://www.w3.org/2000/svg">
<path d="M47.2801 28.1732C45.4016 23.2186 40.615 19.6953 35.0082 19.6953C29.4014 19.6953 24.6148 23.2145 22.7363 28.1691C19.2213 29.092 16.625 32.2912 16.625 36.1016C16.625 40.6338 20.2959 44.3047 24.824 44.3047H45.176C49.7041 44.3047 53.375 40.6338 53.375 36.1016C53.375 32.2994 50.7869 29.1002 47.2801 28.1732ZM48.7689 39.6986C48.2983 40.1721 47.7383 40.5474 47.1216 40.803C46.5049 41.0586 45.8436 41.1893 45.176 41.1875H24.824C23.4664 41.1875 22.1908 40.6584 21.2311 39.6986C20.7576 39.2272 20.3822 38.6665 20.1266 38.0491C19.8711 37.4317 19.7404 36.7698 19.7422 36.1016C19.7422 34.9531 20.1154 33.8744 20.8168 32.9721C21.5036 32.0979 22.4546 31.4692 23.5279 31.1797L25.0824 30.7736L25.6525 29.2725C26.0053 28.3373 26.4975 27.4637 27.1168 26.6721C27.7282 25.8875 28.4525 25.1978 29.266 24.6254C30.9518 23.44 32.9369 22.8125 35.0082 22.8125C37.0795 22.8125 39.0646 23.44 40.7504 24.6254C41.5666 25.1996 42.2885 25.8887 42.8996 26.6721C43.5189 27.4637 44.0111 28.3414 44.3639 29.2725L44.9299 30.7695L46.4803 31.1797C48.7074 31.7744 50.2578 33.7965 50.2578 36.1016C50.2578 37.4592 49.7287 38.7389 48.7689 39.6986Z" fill="black"/>
<path d="M33.5 48.5L29 57" stroke="black" stroke-width="2.5"/>
<path d="M39.5 49L35 57.5" stroke="black" stroke-width="2.5"/>
</svg>
