<svg width="64" height="64" viewBox="0 0 64 64" fill="none" xmlns="http://www.w3.org/2000/svg">
<path d="M38.7477 54.1186L39.1236 53.9107L38.708 53.1586L38.332 53.3664C38.0437 53.5259 37.7883 53.7387 37.5793 53.9934L35.8594 53L37.5795 52.0066C37.7885 52.2613 38.0439 52.4741 38.3322 52.6336L38.7082 52.8414L39.1238 52.0893L38.7479 51.8814C38.5969 51.7981 38.4591 51.6928 38.3391 51.5689L39.375 50.9697L38.9453 50.2266L37.9102 50.8238C37.8627 50.6578 37.8402 50.4857 37.8434 50.3131L37.8514 49.8834L36.992 49.8674L36.984 50.2971C36.9779 50.6262 37.0342 50.9535 37.1498 51.2617L35.4297 52.2557V50.2691C35.7547 50.2154 36.0666 50.1005 36.3488 49.9307L36.7168 49.709L36.2732 48.9729L35.9053 49.1945C35.7574 49.2835 35.5971 49.35 35.4297 49.392V48.3125H34.5703V49.392C34.4029 49.35 34.2426 49.2835 34.0947 49.1945L33.7268 48.9729L33.2832 49.709L33.6512 49.9307C33.9334 50.1005 34.2453 50.2154 34.5703 50.2691V52.2557L32.8502 51.2617C32.9662 50.9533 33.0227 50.6257 33.0168 50.2963L33.0088 49.8666L32.1494 49.8826L32.1574 50.3123C32.1606 50.4849 32.1381 50.6571 32.0906 50.823L31.0547 50.2266L30.625 50.9707L31.6611 51.5691C31.5411 51.693 31.4033 51.7983 31.2523 51.8816L30.8764 52.0893L31.292 52.8414L31.668 52.6336C31.9563 52.4741 32.2117 52.2613 32.4207 52.0066L34.1406 53L32.4205 53.9934C32.2115 53.7387 31.9561 53.5259 31.6678 53.3664L31.292 53.1586L30.8764 53.9107L31.2523 54.1186C31.4033 54.2019 31.5411 54.3072 31.6611 54.4311L30.625 55.0312L31.0547 55.7754L32.0908 55.1771C32.1383 55.3431 32.1608 55.5153 32.1576 55.6879L32.1496 56.1176L33.009 56.1336L33.017 55.7039C33.0229 55.3744 32.9663 55.0467 32.8502 54.7383L34.5703 53.7443V55.7309C34.2453 55.7846 33.9334 55.8995 33.6512 56.0693L33.2832 56.291L33.7268 57.0271L34.0947 56.8055C34.2426 56.7165 34.4029 56.65 34.5703 56.608V57.6875H35.4297V56.608C35.5971 56.65 35.7574 56.7165 35.9053 56.8055L36.2732 57.0271L36.7168 56.291L36.3488 56.0693C36.0666 55.8995 35.7547 55.7846 35.4297 55.7309V53.7443L37.1498 54.7383C37.0338 55.0467 36.9773 55.3743 36.9832 55.7037L36.9912 56.1334L37.8506 56.1174L37.8426 55.6877C37.8396 55.5148 37.8623 55.3424 37.9102 55.1762L38.9453 55.7744L39.375 55.0312L38.3398 54.4318C38.4595 54.3078 38.597 54.2023 38.7477 54.1186V54.1186Z" fill="black"/>
<path d="M47.2801 27.1732C45.4016 22.2186 40.615 18.6953 35.0082 18.6953C29.4014 18.6953 24.6148 22.2145 22.7363 27.1691C19.2213 28.092 16.625 31.2912 16.625 35.1016C16.625 39.6338 20.2959 43.3047 24.824 43.3047H45.176C49.7041 43.3047 53.375 39.6338 53.375 35.1016C53.375 31.2994 50.7869 28.1002 47.2801 27.1732ZM48.7689 38.6986C48.2983 39.1721 47.7383 39.5474 47.1216 39.803C46.5049 40.0586 45.8436 40.1893 45.176 40.1875H24.824C23.4664 40.1875 22.1908 39.6584 21.2311 38.6986C20.7576 38.2272 20.3822 37.6665 20.1266 37.0491C19.8711 36.4317 19.7404 35.7698 19.7422 35.1016C19.7422 33.9531 20.1154 32.8744 20.8168 31.9721C21.5036 31.0979 22.4546 30.4692 23.5279 30.1797L25.0824 29.7736L25.6525 28.2725C26.0053 27.3373 26.4975 26.4637 27.1168 25.6721C27.7282 24.8875 28.4525 24.1978 29.266 23.6254C30.9518 22.44 32.9369 21.8125 35.0082 21.8125C37.0795 21.8125 39.0646 22.44 40.7504 23.6254C41.5666 24.1996 42.2885 24.8887 42.8996 25.6721C43.5189 26.4637 44.0111 27.3414 44.3639 28.2725L44.9299 29.7695L46.4803 30.1797C48.7074 30.7744 50.2578 32.7965 50.2578 35.1016C50.2578 36.4592 49.7287 37.7389 48.7689 38.6986Z" fill="black"/>
</svg>
