<svg width="64" height="64" viewBox="0 0 64 64" fill="none" xmlns="http://www.w3.org/2000/svg">
<path d="M28.7477 54.1186L29.1236 53.9107L28.708 53.1586L28.332 53.3664C28.0437 53.5259 27.7883 53.7387 27.5793 53.9934L25.8594 53L27.5795 52.0066C27.7885 52.2613 28.0439 52.4741 28.3322 52.6336L28.7082 52.8414L29.1238 52.0893L28.7479 51.8814C28.5969 51.7981 28.4591 51.6928 28.3391 51.5689L29.375 50.9697L28.9453 50.2266L27.9102 50.8238C27.8627 50.6578 27.8402 50.4857 27.8434 50.3131L27.8514 49.8834L26.992 49.8674L26.984 50.2971C26.9779 50.6262 27.0342 50.9535 27.1498 51.2617L25.4297 52.2557V50.2691C25.7547 50.2154 26.0666 50.1005 26.3488 49.9307L26.7168 49.709L26.2732 48.9729L25.9053 49.1945C25.7574 49.2835 25.5971 49.35 25.4297 49.392V48.3125H24.5703V49.392C24.4029 49.35 24.2426 49.2835 24.0947 49.1945L23.7268 48.9729L23.2832 49.709L23.6512 49.9307C23.9334 50.1005 24.2453 50.2154 24.5703 50.2691V52.2557L22.8502 51.2617C22.9662 50.9533 23.0227 50.6257 23.0168 50.2963L23.0088 49.8666L22.1494 49.8826L22.1574 50.3123C22.1606 50.4849 22.1381 50.6571 22.0906 50.823L21.0547 50.2266L20.625 50.9707L21.6611 51.5691C21.5411 51.693 21.4033 51.7983 21.2523 51.8816L20.8764 52.0893L21.292 52.8414L21.668 52.6336C21.9563 52.4741 22.2117 52.2613 22.4207 52.0066L24.1406 53L22.4205 53.9934C22.2115 53.7387 21.9561 53.5259 21.6678 53.3664L21.292 53.1586L20.8764 53.9107L21.2523 54.1186C21.4033 54.2019 21.5411 54.3072 21.6611 54.4311L20.625 55.0312L21.0547 55.7754L22.0908 55.1771C22.1383 55.3431 22.1608 55.5153 22.1576 55.6879L22.1496 56.1176L23.009 56.1336L23.017 55.7039C23.0229 55.3744 22.9663 55.0467 22.8502 54.7383L24.5703 53.7443V55.7309C24.2453 55.7846 23.9334 55.8995 23.6512 56.0693L23.2832 56.291L23.7268 57.0271L24.0947 56.8055C24.2426 56.7165 24.4029 56.65 24.5703 56.608V57.6875H25.4297V56.608C25.5971 56.65 25.7574 56.7165 25.9053 56.8055L26.2732 57.0271L26.7168 56.291L26.3488 56.0693C26.0666 55.8995 25.7547 55.7846 25.4297 55.7309V53.7443L27.1498 54.7383C27.0338 55.0467 26.9773 55.3743 26.9832 55.7037L26.9912 56.1334L27.8506 56.1174L27.8426 55.6877C27.8396 55.5148 27.8623 55.3424 27.9102 55.1762L28.9453 55.7744L29.375 55.0312L28.3398 54.4318C28.4595 54.3078 28.597 54.2023 28.7477 54.1186V54.1186Z" fill="black"/>
<path d="M42.7477 54.1186L43.1236 53.9107L42.708 53.1586L42.332 53.3664C42.0437 53.5259 41.7883 53.7387 41.5793 53.9934L39.8594 53L41.5795 52.0066C41.7885 52.2613 42.0439 52.4741 42.3322 52.6336L42.7082 52.8414L43.1238 52.0893L42.7479 51.8814C42.5969 51.7981 42.4591 51.6928 42.3391 51.5689L43.375 50.9697L42.9453 50.2266L41.9102 50.8238C41.8627 50.6578 41.8402 50.4857 41.8434 50.3131L41.8514 49.8834L40.992 49.8674L40.984 50.2971C40.9779 50.6262 41.0342 50.9535 41.1498 51.2617L39.4297 52.2557V50.2691C39.7547 50.2154 40.0666 50.1005 40.3488 49.9307L40.7168 49.709L40.2732 48.9729L39.9053 49.1945C39.7574 49.2835 39.5971 49.35 39.4297 49.392V48.3125H38.5703V49.392C38.4029 49.35 38.2426 49.2835 38.0947 49.1945L37.7268 48.9729L37.2832 49.709L37.6512 49.9307C37.9334 50.1005 38.2453 50.2154 38.5703 50.2691V52.2557L36.8502 51.2617C36.9662 50.9533 37.0227 50.6257 37.0168 50.2963L37.0088 49.8666L36.1494 49.8826L36.1574 50.3123C36.1606 50.4849 36.1381 50.6571 36.0906 50.823L35.0547 50.2266L34.625 50.9707L35.6611 51.5691C35.5411 51.693 35.4033 51.7983 35.2523 51.8816L34.8764 52.0893L35.292 52.8414L35.668 52.6336C35.9563 52.4741 36.2117 52.2613 36.4207 52.0066L38.1406 53L36.4205 53.9934C36.2115 53.7387 35.9561 53.5259 35.6678 53.3664L35.292 53.1586L34.8764 53.9107L35.2523 54.1186C35.4033 54.2019 35.5411 54.3072 35.6611 54.4311L34.625 55.0312L35.0547 55.7754L36.0908 55.1771C36.1383 55.3431 36.1608 55.5153 36.1576 55.6879L36.1496 56.1176L37.009 56.1336L37.017 55.7039C37.0229 55.3744 36.9663 55.0467 36.8502 54.7383L38.5703 53.7443V55.7309C38.2453 55.7846 37.9334 55.8995 37.6512 56.0693L37.2832 56.291L37.7268 57.0271L38.0947 56.8055C38.2426 56.7165 38.4029 56.65 38.5703 56.608V57.6875H39.4297V56.608C39.5971 56.65 39.7574 56.7165 39.9053 56.8055L40.2732 57.0271L40.7168 56.291L40.3488 56.0693C40.0666 55.8995 39.7547 55.7846 39.4297 55.7309V53.7443L41.1498 54.7383C41.0338 55.0467 40.9773 55.3743 40.9832 55.7037L40.9912 56.1334L41.8506 56.1174L41.8426 55.6877C41.8396 55.5148 41.8623 55.3424 41.9102 55.1762L42.9453 55.7744L43.375 55.0312L42.3398 54.4318C42.4595 54.3078 42.597 54.2023 42.7477 54.1186V54.1186Z" fill="black"/>
<path d="M47.2801 27.1732C45.4016 22.2186 40.615 18.6953 35.0082 18.6953C29.4014 18.6953 24.6148 22.2145 22.7363 27.1691C19.2213 28.092 16.625 31.2912 16.625 35.1016C16.625 39.6338 20.2959 43.3047 24.824 43.3047H45.176C49.7041 43.3047 53.375 39.6338 53.375 35.1016C53.375 31.2994 50.7869 28.1002 47.2801 27.1732ZM48.7689 38.6986C48.2983 39.1721 47.7383 39.5474 47.1216 39.803C46.5049 40.0586 45.8436 40.1893 45.176 40.1875H24.824C23.4664 40.1875 22.1908 39.6584 21.2311 38.6986C20.7576 38.2272 20.3822 37.6665 20.1266 37.0491C19.8711 36.4317 19.7404 35.7698 19.7422 35.1016C19.7422 33.9531 20.1154 32.8744 20.8168 31.9721C21.5036 31.0979 22.4546 30.4692 23.5279 30.1797L25.0824 29.7736L25.6525 28.2725C26.0053 27.3373 26.4975 26.4637 27.1168 25.6721C27.7282 24.8875 28.4525 24.1978 29.266 23.6254C30.9518 22.44 32.9369 21.8125 35.0082 21.8125C37.0795 21.8125 39.0646 22.44 40.7504 23.6254C41.5666 24.1996 42.2885 24.8887 42.8996 25.6721C43.5189 26.4637 44.0111 27.3414 44.3639 28.2725L44.9299 29.7695L46.4803 30.1797C48.7074 30.7744 50.2578 32.7965 50.2578 35.1016C50.2578 36.4592 49.7287 37.7389 48.7689 38.6986Z" fill="black"/>
</svg>
