<svg width="64" height="64" viewBox="0 0 64 64" fill="none" xmlns="http://www.w3.org/2000/svg">
<path d="M44.2801 25.1732C42.4016 20.2186 37.615 16.6953 32.0082 16.6953C26.4014 16.6953 21.6148 20.2145 19.7363 25.1691C16.2213 26.092 13.625 29.2912 13.625 33.1016C13.625 37.6338 17.2959 41.3047 21.824 41.3047H42.176C46.7041 41.3047 50.375 37.6338 50.375 33.1016C50.375 29.2994 47.7869 26.1002 44.2801 25.1732ZM45.7689 36.6986C45.2983 37.1721 44.7383 37.5474 44.1216 37.803C43.5049 38.0586 42.8436 38.1893 42.176 38.1875H21.824C20.4664 38.1875 19.1908 37.6584 18.2311 36.6986C17.7576 36.2272 17.3822 35.6665 17.1266 35.0491C16.8711 34.4317 16.7404 33.7698 16.7422 33.1016C16.7422 31.9531 17.1154 30.8744 17.8168 29.9721C18.5036 29.0979 19.4546 28.4692 20.5279 28.1797L22.0824 27.7736L22.6525 26.2725C23.0053 25.3373 23.4975 24.4637 24.1168 23.6721C24.7282 22.8875 25.4525 22.1978 26.266 21.6254C27.9518 20.44 29.9369 19.8125 32.0082 19.8125C34.0795 19.8125 36.0646 20.44 37.7504 21.6254C38.5666 22.1996 39.2885 22.8887 39.8996 23.6721C40.5189 24.4637 41.0111 25.3414 41.3639 26.2725L41.9299 27.7695L43.4803 28.1797C45.7074 28.7744 47.2578 30.7965 47.2578 33.1016C47.2578 34.4592 46.7287 35.7389 45.7689 36.6986Z" fill="black"/>
<circle cx="32" cy="54" r="4" fill="black"/>
</svg>
