<svg width="64" height="64" viewBox="0 0 64 64" fill="none" xmlns="http://www.w3.org/2000/svg">
<path d="M47.2801 28.1732C45.4016 23.2186 40.615 19.6953 35.0082 19.6953C29.4014 19.6953 24.6148 23.2145 22.7363 28.1691C19.2213 29.092 16.625 32.2912 16.625 36.1016C16.625 40.6338 20.2959 44.3047 24.824 44.3047H45.176C49.7041 44.3047 53.375 40.6338 53.375 36.1016C53.375 32.2994 50.7869 29.1002 47.2801 28.1732ZM48.7689 39.6986C48.2983 40.1721 47.7383 40.5474 47.1216 40.803C46.5049 41.0586 45.8436 41.1893 45.176 41.1875H24.824C23.4664 41.1875 22.1908 40.6584 21.2311 39.6986C20.7576 39.2272 20.3822 38.6665 20.1266 38.0491C19.8711 37.4317 19.7404 36.7698 19.7422 36.1016C19.7422 34.9531 20.1154 33.8744 20.8168 32.9721C21.5036 32.0979 22.4546 31.4692 23.5279 31.1797L25.0824 30.7736L25.6525 29.2725C26.0053 28.3373 26.4975 27.4637 27.1168 26.6721C27.7282 25.8875 28.4525 25.1978 29.266 24.6254C30.9518 23.44 32.9369 22.8125 35.0082 22.8125C37.0795 22.8125 39.0646 23.44 40.7504 24.6254C41.5666 25.1996 42.2885 25.8887 42.8996 26.6721C43.5189 27.4637 44.0111 28.3414 44.3639 29.2725L44.9299 30.7695L46.4803 31.1797C48.7074 31.7744 50.2578 33.7965 50.2578 36.1016C50.2578 37.4592 49.7287 38.7389 48.7689 39.6986Z" fill="black"/>
<path d="M15.451 36.667L13.33 34.546L16.51 31.363L18.6325 33.484L15.4525 36.6655V36.667H15.451ZM20.8317 31.363C18.8398 31.3622 21.0951 31.7177 19.6872 30.3086C18.2792 28.8995 17.4887 26.9889 17.4895 24.997C17.4903 23.0051 18.2824 21.0951 19.6914 19.6872C21.1005 18.2792 23.0111 17.4887 25.003 17.4895C25.9893 17.4899 26.9659 17.6845 27.8769 18.0624C28.788 18.4402 29.6157 18.9937 30.3129 19.6914C31.01 20.3891 31.5629 21.2173 31.94 22.1286C32.317 23.04 30.309 22.2904 30.3086 23.2767C28.2981 21.2737 29.5 23.5 28.5448 23.8688C28.167 24.7798 25.7007 28.8134 25.003 29.5105C24.3053 30.2076 22.7241 30.9859 21.8127 31.363C20.9014 31.7401 21.818 31.3634 20.8317 31.363ZM24.997 20.4895C24.4047 20.4899 23.8182 20.607 23.2711 20.834C22.7241 21.061 22.227 21.3936 21.8085 21.8127C21.3899 22.2318 21.058 22.7293 20.8317 23.2767C20.6054 23.8241 20.4891 24.4107 20.4895 25.003C20.4899 25.5953 20.607 26.1818 20.834 26.7289C21.061 27.276 21.3936 27.773 21.8127 28.1915C22.2318 28.6101 22.7293 28.942 23.2767 29.1683C23.8241 29.3946 24.4107 29.5109 25.003 29.5105C26.1993 29.5097 25.6517 27.5753 26.497 26.7289C27.3423 25.8824 28.5008 25.6963 28.5 24.5C28.4992 23.3037 29.0337 22.6538 28.1873 21.8085C27.3408 20.9632 26.1933 20.4887 24.997 20.4895ZM14.497 26.5H9.99701V23.5H14.497V26.5ZM33.481 18.637L31.3615 16.5145L34.543 13.3315L36.6655 15.454L33.4825 18.6355L33.481 18.637ZM16.5115 18.637L13.3315 15.4555L15.454 13.3345L18.634 16.5175L16.513 18.6355V18.637H16.5115ZM26.497 14.5H23.497V10H26.497V14.5Z" fill="black"/>
<path d="M33.5 48.5L29 57" stroke="black" stroke-width="2.5"/>
<path d="M39.5 49L35 57.5" stroke="black" stroke-width="2.5"/>
</svg>
