<svg width="64" height="64" viewBox="0 0 64 64" fill="none" xmlns="http://www.w3.org/2000/svg">
<path d="M47.2801 28.1732C45.4016 23.2186 40.615 19.6953 35.0082 19.6953C29.4014 19.6953 24.6148 23.2145 22.7363 28.1691C19.2213 29.092 16.625 32.2912 16.625 36.1016C16.625 40.6338 20.2959 44.3047 24.824 44.3047H45.176C49.7041 44.3047 53.375 40.6338 53.375 36.1016C53.375 32.2994 50.7869 29.1002 47.2801 28.1732ZM48.7689 39.6986C48.2983 40.1721 47.7383 40.5474 47.1216 40.803C46.5049 41.0586 45.8436 41.1893 45.176 41.1875H24.824C23.4664 41.1875 22.1908 40.6584 21.2311 39.6986C20.7576 39.2272 20.3822 38.6665 20.1266 38.0491C19.8711 37.4317 19.7404 36.7698 19.7422 36.1016C19.7422 34.9531 20.1154 33.8744 20.8168 32.9721C21.5036 32.0979 22.4546 31.4692 23.5279 31.1797L25.0824 30.7736L25.6525 29.2725C26.0053 28.3373 26.4975 27.4637 27.1168 26.6721C27.7282 25.8875 28.4525 25.1978 29.266 24.6254C30.9518 23.44 32.9369 22.8125 35.0082 22.8125C37.0795 22.8125 39.0646 23.44 40.7504 24.6254C41.5666 25.1996 42.2885 25.8887 42.8996 26.6721C43.5189 27.4637 44.0111 28.3414 44.3639 29.2725L44.9299 30.7695L46.4803 31.1797C48.7074 31.7744 50.2578 33.7965 50.2578 36.1016C50.2578 37.4592 49.7287 38.7389 48.7689 39.6986Z" fill="black"/>
<path d="M15.4509 36.667L13.3299 34.546L16.5099 31.363L18.6324 33.484L15.4524 36.6655V36.667H15.4509ZM20.8316 31.363C18.8397 31.3622 21.095 31.7177 19.6871 30.3086C18.2792 28.8995 17.4887 26.9889 17.4894 24.997C17.4902 23.0051 18.2823 21.0951 19.6913 19.6872C21.1004 18.2792 23.011 17.4887 25.0029 17.4895C25.9892 17.4899 26.9658 17.6845 27.8769 18.0624C28.7879 18.4402 29.6157 18.9937 30.3128 19.6914C31.0099 20.3891 31.5628 21.2173 31.9399 22.1286C32.317 23.04 30.3089 22.2904 30.3086 23.2767C28.298 21.2737 29.4999 23.5 28.5448 23.8688C28.167 24.7798 25.7006 28.8134 25.0029 29.5105C24.3053 30.2076 22.724 30.9859 21.8127 31.363C20.9013 31.7401 21.8179 31.3634 20.8316 31.363ZM24.9969 20.4895C24.4046 20.4899 23.8182 20.607 23.2711 20.834C22.724 21.061 22.227 21.3936 21.8084 21.8127C21.3899 22.2318 21.058 22.7293 20.8316 23.2767C20.6053 23.8241 20.4891 24.4107 20.4894 25.003C20.4898 25.5953 20.6069 26.1818 20.8339 26.7289C21.061 27.276 21.3935 27.773 21.8127 28.1915C22.2318 28.6101 22.7292 28.942 23.2766 29.1683C23.824 29.3946 24.4106 29.5109 25.0029 29.5105C26.1992 29.5097 25.6516 27.5753 26.4969 26.7289C27.3423 25.8824 28.5007 25.6963 28.4999 24.5C28.4991 23.3037 29.0337 22.6538 28.1872 21.8085C27.3408 20.9632 26.1932 20.4887 24.9969 20.4895ZM14.4969 26.5H9.99695V23.5H14.4969V26.5ZM33.4809 18.637L31.3614 16.5145L34.5429 13.3315L36.6655 15.454L33.4824 18.6355L33.4809 18.637ZM16.5114 18.637L13.3314 15.4555L15.4539 13.3345L18.6339 16.5175L16.5129 18.6355V18.637H16.5114ZM26.4969 14.5H23.4969V10H26.4969V14.5Z" fill="black"/>
<path d="M20.5 49L16 57.5" stroke="black" stroke-width="2.5"/>
<path d="M26 49L21.5 57.5" stroke="black" stroke-width="2.5"/>
<path d="M31.5 49L27 57.5" stroke="black" stroke-width="2.5"/>
<path d="M37 49L32.5 57.5" stroke="black" stroke-width="2.5"/>
<path d="M42.5 49L38 57.5" stroke="black" stroke-width="2.5"/>
<path d="M48 49L43.5 57.5" stroke="black" stroke-width="2.5"/>
</svg>
