<svg width="64" height="64" viewBox="0 0 64 64" fill="none" xmlns="http://www.w3.org/2000/svg">
<path d="M47.2801 27.1732C45.4016 22.2186 40.615 18.6953 35.0082 18.6953C29.4014 18.6953 24.6148 22.2145 22.7363 27.1691C19.2213 28.092 16.625 31.2912 16.625 35.1016C16.625 39.6338 20.2959 43.3047 24.824 43.3047H45.176C49.7041 43.3047 53.375 39.6338 53.375 35.1016C53.375 31.2994 50.7869 28.1002 47.2801 27.1732ZM48.7689 38.6986C48.2983 39.1721 47.7383 39.5474 47.1216 39.803C46.5049 40.0586 45.8436 40.1893 45.176 40.1875H24.824C23.4664 40.1875 22.1908 39.6584 21.2311 38.6986C20.7576 38.2272 20.3822 37.6665 20.1266 37.0491C19.8711 36.4317 19.7404 35.7698 19.7422 35.1016C19.7422 33.9531 20.1154 32.8744 20.8168 31.9721C21.5036 31.0979 22.4546 30.4692 23.5279 30.1797L25.0824 29.7736L25.6525 28.2725C26.0053 27.3373 26.4975 26.4637 27.1168 25.6721C27.7282 24.8875 28.4525 24.1978 29.266 23.6254C30.9518 22.44 32.9369 21.8125 35.0082 21.8125C37.0795 21.8125 39.0646 22.44 40.7504 23.6254C41.5666 24.1996 42.2885 24.8887 42.8996 25.6721C43.5189 26.4637 44.0111 27.3414 44.3639 28.2725L44.9299 29.7695L46.4803 30.1797C48.7074 30.7744 50.2578 32.7965 50.2578 35.1016C50.2578 36.4592 49.7287 37.7389 48.7689 38.6986Z" fill="black"/>
<path d="M15.4509 35.667L13.3299 33.546L16.5099 30.363L18.6324 32.484L15.4524 35.6655V35.667H15.4509ZM20.8316 30.363C18.8397 30.3622 21.095 30.7177 19.6871 29.3086C18.2792 27.8995 17.4887 25.9889 17.4894 23.997C17.4902 22.0051 18.2823 20.0951 19.6913 18.6872C21.1004 17.2792 23.011 16.4887 25.0029 16.4895C25.9892 16.4899 26.9658 16.6845 27.8769 17.0624C28.7879 17.4402 29.6157 17.9937 30.3128 18.6914C31.0099 19.3891 31.5628 20.2173 31.9399 21.1286C32.317 22.04 30.3089 21.2904 30.3086 22.2767C28.298 20.2737 29.4999 22.5 28.5448 22.8688C28.167 23.7798 25.7006 27.8134 25.0029 28.5105C24.3053 29.2076 22.724 29.9859 21.8127 30.363C20.9013 30.7401 21.8179 30.3634 20.8316 30.363ZM24.9969 19.4895C24.4046 19.4899 23.8182 19.607 23.2711 19.834C22.724 20.061 22.227 20.3936 21.8084 20.8127C21.3899 21.2318 21.058 21.7293 20.8316 22.2767C20.6053 22.8241 20.4891 23.4107 20.4894 24.003C20.4898 24.5953 20.6069 25.1818 20.8339 25.7289C21.061 26.276 21.3935 26.773 21.8127 27.1915C22.2318 27.6101 22.7292 27.942 23.2766 28.1683C23.824 28.3946 24.4106 28.5109 25.0029 28.5105C26.1992 28.5097 25.6516 26.5753 26.4969 25.7289C27.3423 24.8824 28.5007 24.6963 28.4999 23.5C28.4991 22.3037 29.0337 21.6538 28.1872 20.8085C27.3408 19.9632 26.1932 19.4887 24.9969 19.4895ZM14.4969 25.5H9.99695V22.5H14.4969V25.5ZM33.4809 17.637L31.3614 15.5145L34.5429 12.3315L36.6655 14.454L33.4824 17.6355L33.4809 17.637ZM16.5114 17.637L13.3314 14.4555L15.4539 12.3345L18.6339 15.5175L16.5129 17.6355V17.637H16.5114ZM26.4969 13.5H23.4969V9H26.4969V13.5Z" fill="black"/>
<path d="M20.5 47.75L16 56.25" stroke="black" stroke-width="2.5"/>
<path d="M27 47.75L22.5 56.25" stroke="black" stroke-width="2.5"/>
<path d="M37.7477 53.1186L38.1236 52.9107L37.708 52.1586L37.332 52.3664C37.0437 52.5259 36.7883 52.7387 36.5793 52.9934L34.8594 52L36.5795 51.0066C36.7885 51.2613 37.0439 51.4741 37.3322 51.6336L37.7082 51.8414L38.1238 51.0893L37.7479 50.8814C37.5969 50.7981 37.4591 50.6928 37.3391 50.5689L38.375 49.9697L37.9453 49.2266L36.9102 49.8238C36.8627 49.6578 36.8402 49.4857 36.8434 49.3131L36.8514 48.8834L35.992 48.8674L35.984 49.2971C35.9779 49.6262 36.0342 49.9535 36.1498 50.2617L34.4297 51.2557V49.2691C34.7547 49.2154 35.0666 49.1005 35.3488 48.9307L35.7168 48.709L35.2732 47.9729L34.9053 48.1945C34.7574 48.2835 34.5971 48.35 34.4297 48.392V47.3125H33.5703V48.392C33.4029 48.35 33.2426 48.2835 33.0947 48.1945L32.7268 47.9729L32.2832 48.709L32.6512 48.9307C32.9334 49.1005 33.2453 49.2154 33.5703 49.2691V51.2557L31.8502 50.2617C31.9662 49.9533 32.0227 49.6257 32.0168 49.2963L32.0088 48.8666L31.1494 48.8826L31.1574 49.3123C31.1606 49.4849 31.1381 49.6571 31.0906 49.823L30.0547 49.2266L29.625 49.9707L30.6611 50.5691C30.5411 50.693 30.4033 50.7983 30.2523 50.8816L29.8764 51.0893L30.292 51.8414L30.668 51.6336C30.9563 51.4741 31.2117 51.2613 31.4207 51.0066L33.1406 52L31.4205 52.9934C31.2115 52.7387 30.9561 52.5259 30.6678 52.3664L30.292 52.1586L29.8764 52.9107L30.2523 53.1186C30.4033 53.2019 30.5411 53.3072 30.6611 53.4311L29.625 54.0312L30.0547 54.7754L31.0908 54.1771C31.1383 54.3431 31.1608 54.5153 31.1576 54.6879L31.1496 55.1176L32.009 55.1336L32.017 54.7039C32.0229 54.3744 31.9663 54.0467 31.8502 53.7383L33.5703 52.7443V54.7309C33.2453 54.7846 32.9334 54.8995 32.6512 55.0693L32.2832 55.291L32.7268 56.0271L33.0947 55.8055C33.2426 55.7165 33.4029 55.65 33.5703 55.608V56.6875H34.4297V55.608C34.5971 55.65 34.7574 55.7165 34.9053 55.8055L35.2732 56.0271L35.7168 55.291L35.3488 55.0693C35.0666 54.8995 34.7547 54.7846 34.4297 54.7309V52.7443L36.1498 53.7383C36.0338 54.0467 35.9773 54.3743 35.9832 54.7037L35.9912 55.1334L36.8506 55.1174L36.8426 54.6877C36.8396 54.5148 36.8623 54.3424 36.9102 54.1762L37.9453 54.7744L38.375 54.0312L37.3398 53.4318C37.4595 53.3078 37.597 53.2023 37.7477 53.1186V53.1186Z" fill="black"/>
<path d="M49.7477 53.1186L50.1236 52.9107L49.708 52.1586L49.332 52.3664C49.0437 52.5259 48.7883 52.7387 48.5793 52.9934L46.8594 52L48.5795 51.0066C48.7885 51.2613 49.0439 51.4741 49.3322 51.6336L49.7082 51.8414L50.1238 51.0893L49.7479 50.8814C49.5969 50.7981 49.4591 50.6928 49.3391 50.5689L50.375 49.9697L49.9453 49.2266L48.9102 49.8238C48.8627 49.6578 48.8402 49.4857 48.8434 49.3131L48.8514 48.8834L47.992 48.8674L47.984 49.2971C47.9779 49.6262 48.0342 49.9535 48.1498 50.2617L46.4297 51.2557V49.2691C46.7547 49.2154 47.0666 49.1005 47.3488 48.9307L47.7168 48.709L47.2732 47.9729L46.9053 48.1945C46.7574 48.2835 46.5971 48.35 46.4297 48.392V47.3125H45.5703V48.392C45.4029 48.35 45.2426 48.2835 45.0947 48.1945L44.7268 47.9729L44.2832 48.709L44.6512 48.9307C44.9334 49.1005 45.2453 49.2154 45.5703 49.2691V51.2557L43.8502 50.2617C43.9662 49.9533 44.0227 49.6257 44.0168 49.2963L44.0088 48.8666L43.1494 48.8826L43.1574 49.3123C43.1606 49.4849 43.1381 49.6571 43.0906 49.823L42.0547 49.2266L41.625 49.9707L42.6611 50.5691C42.5411 50.693 42.4033 50.7983 42.2523 50.8816L41.8764 51.0893L42.292 51.8414L42.668 51.6336C42.9563 51.4741 43.2117 51.2613 43.4207 51.0066L45.1406 52L43.4205 52.9934C43.2115 52.7387 42.9561 52.5259 42.6678 52.3664L42.292 52.1586L41.8764 52.9107L42.2523 53.1186C42.4033 53.2019 42.5411 53.3072 42.6611 53.4311L41.625 54.0312L42.0547 54.7754L43.0908 54.1771C43.1383 54.3431 43.1608 54.5153 43.1576 54.6879L43.1496 55.1176L44.009 55.1336L44.017 54.7039C44.0229 54.3744 43.9663 54.0467 43.8502 53.7383L45.5703 52.7443V54.7309C45.2453 54.7846 44.9334 54.8995 44.6512 55.0693L44.2832 55.291L44.7268 56.0271L45.0947 55.8055C45.2426 55.7165 45.4029 55.65 45.5703 55.608V56.6875H46.4297V55.608C46.5971 55.65 46.7574 55.7165 46.9053 55.8055L47.2732 56.0271L47.7168 55.291L47.3488 55.0693C47.0666 54.8995 46.7547 54.7846 46.4297 54.7309V52.7443L48.1498 53.7383C48.0338 54.0467 47.9773 54.3743 47.9832 54.7037L47.9912 55.1334L48.8506 55.1174L48.8426 54.6877C48.8396 54.5148 48.8623 54.3424 48.9102 54.1762L49.9453 54.7744L50.375 54.0312L49.3398 53.4318C49.4595 53.3078 49.597 53.2023 49.7477 53.1186V53.1186Z" fill="black"/>
</svg>
