<svg width="64" height="64" viewBox="0 0 64 64" fill="none" xmlns="http://www.w3.org/2000/svg">
<circle cx="35" cy="53" r="4" fill="black"/>
<path d="M47.2801 27.1732C45.4016 22.2186 40.615 18.6953 35.0082 18.6953C29.4014 18.6953 24.6148 22.2145 22.7363 27.1691C19.2213 28.092 16.625 31.2912 16.625 35.1016C16.625 39.6338 20.2959 43.3047 24.824 43.3047H45.176C49.7041 43.3047 53.375 39.6338 53.375 35.1016C53.375 31.2994 50.7869 28.1002 47.2801 27.1732ZM48.7689 38.6986C48.2983 39.1721 47.7383 39.5474 47.1216 39.803C46.5049 40.0586 45.8436 40.1893 45.176 40.1875H24.824C23.4664 40.1875 22.1908 39.6584 21.2311 38.6986C20.7576 38.2272 20.3822 37.6665 20.1266 37.0491C19.8711 36.4317 19.7404 35.7698 19.7422 35.1016C19.7422 33.9531 20.1154 32.8744 20.8168 31.9721C21.5036 31.0979 22.4546 30.4692 23.5279 30.1797L25.0824 29.7736L25.6525 28.2725C26.0053 27.3373 26.4975 26.4637 27.1168 25.6721C27.7282 24.8875 28.4525 24.1978 29.266 23.6254C30.9518 22.44 32.9369 21.8125 35.0082 21.8125C37.0795 21.8125 39.0646 22.44 40.7504 23.6254C41.5666 24.1996 42.2885 24.8887 42.8996 25.6721C43.5189 26.4637 44.0111 27.3414 44.3639 28.2725L44.9299 29.7695L46.4803 30.1797C48.7074 30.7744 50.2578 32.7965 50.2578 35.1016C50.2578 36.4592 49.7287 37.7389 48.7689 38.6986Z" fill="black"/>
<path d="M15.451 35.667L13.33 33.546L16.51 30.363L18.6325 32.484L15.4525 35.6655V35.667H15.451ZM20.8317 30.363C18.8398 30.3622 21.0951 30.7177 19.6872 29.3086C18.2792 27.8995 17.4887 25.9889 17.4895 23.997C17.4903 22.0051 18.2824 20.0951 19.6914 18.6872C21.1005 17.2792 23.0111 16.4887 25.003 16.4895C25.9893 16.4899 26.9659 16.6845 27.8769 17.0624C28.788 17.4402 29.6157 17.9937 30.3129 18.6914C31.01 19.3891 31.5629 20.2173 31.94 21.1286C32.317 22.04 30.309 21.2904 30.3086 22.2767C28.2981 20.2737 29.5 22.5 28.5448 22.8688C28.167 23.7798 25.7007 27.8134 25.003 28.5105C24.3053 29.2076 22.7241 29.9859 21.8127 30.363C20.9014 30.7401 21.818 30.3634 20.8317 30.363ZM24.997 19.4895C24.4047 19.4899 23.8182 19.607 23.2711 19.834C22.7241 20.061 22.227 20.3936 21.8085 20.8127C21.3899 21.2318 21.058 21.7293 20.8317 22.2767C20.6054 22.8241 20.4891 23.4107 20.4895 24.003C20.4899 24.5953 20.607 25.1818 20.834 25.7289C21.061 26.276 21.3936 26.773 21.8127 27.1915C22.2318 27.6101 22.7293 27.942 23.2767 28.1683C23.8241 28.3946 24.4107 28.5109 25.003 28.5105C26.1993 28.5097 25.6517 26.5753 26.497 25.7289C27.3423 24.8824 28.5008 24.6963 28.5 23.5C28.4992 22.3037 29.0337 21.6538 28.1873 20.8085C27.3408 19.9632 26.1933 19.4887 24.997 19.4895ZM14.497 25.5H9.99701V22.5H14.497V25.5ZM33.481 17.637L31.3615 15.5145L34.543 12.3315L36.6655 14.454L33.4825 17.6355L33.481 17.637ZM16.5115 17.637L13.3315 14.4555L15.454 12.3345L18.634 15.5175L16.513 17.6355V17.637H16.5115ZM26.497 13.5H23.497V9H26.497V13.5Z" fill="black"/>
</svg>
