<svg width="64" height="64" viewBox="0 0 64 64" fill="none" xmlns="http://www.w3.org/2000/svg">
<path d="M47.2801 29.1732C45.4016 24.2186 40.615 20.6953 35.0082 20.6953C29.4014 20.6953 24.6148 24.2145 22.7363 29.1691C19.2213 30.092 16.625 33.2912 16.625 37.1016C16.625 41.6338 20.2959 45.3047 24.824 45.3047H45.176C49.7041 45.3047 53.375 41.6338 53.375 37.1016C53.375 33.2994 50.7869 30.1002 47.2801 29.1732ZM48.7689 40.6986C48.2983 41.1721 47.7383 41.5474 47.1216 41.803C46.5049 42.0586 45.8436 42.1893 45.176 42.1875H24.824C23.4664 42.1875 22.1908 41.6584 21.2311 40.6986C20.7576 40.2272 20.3822 39.6665 20.1266 39.0491C19.8711 38.4317 19.7404 37.7698 19.7422 37.1016C19.7422 35.9531 20.1154 34.8744 20.8168 33.9721C21.5036 33.0979 22.4546 32.4692 23.5279 32.1797L25.0824 31.7736L25.6525 30.2725C26.0053 29.3373 26.4975 28.4637 27.1168 27.6721C27.7282 26.8875 28.4525 26.1978 29.266 25.6254C30.9518 24.44 32.9369 23.8125 35.0082 23.8125C37.0795 23.8125 39.0646 24.44 40.7504 25.6254C41.5666 26.1996 42.2885 26.8887 42.8996 27.6721C43.5189 28.4637 44.0111 29.3414 44.3639 30.2725L44.9299 31.7695L46.4803 32.1797C48.7074 32.7744 50.2578 34.7965 50.2578 37.1016C50.2578 38.4592 49.7287 39.7389 48.7689 40.6986Z" fill="black"/>
<path d="M15.451 37.667L13.33 35.546L16.51 32.363L18.6325 34.484L15.4525 37.6655V37.667H15.451ZM20.8317 32.363C18.8398 32.3622 21.0951 32.7177 19.6872 31.3086C18.2792 29.8995 17.4887 27.9889 17.4895 25.997C17.4903 24.0051 18.2824 22.0951 19.6914 20.6872C21.1005 19.2792 23.0111 18.4887 25.003 18.4895C25.9893 18.4899 26.9659 18.6845 27.8769 19.0624C28.788 19.4402 29.6157 19.9937 30.3129 20.6914C31.01 21.3891 31.5629 22.2173 31.94 23.1286C32.317 24.04 30.309 23.2904 30.3086 24.2767C28.2981 22.2737 29.5 24.5 28.5448 24.8688C28.167 25.7798 25.7007 29.8134 25.003 30.5105C24.3053 31.2076 22.7241 31.9859 21.8127 32.363C20.9014 32.7401 21.818 32.3634 20.8317 32.363ZM24.997 21.4895C24.4047 21.4899 23.8182 21.607 23.2711 21.834C22.7241 22.061 22.227 22.3936 21.8085 22.8127C21.3899 23.2318 21.058 23.7293 20.8317 24.2767C20.6054 24.8241 20.4891 25.4107 20.4895 26.003C20.4899 26.5953 20.607 27.1818 20.834 27.7289C21.061 28.276 21.3936 28.773 21.8127 29.1915C22.2318 29.6101 22.7293 29.942 23.2767 30.1683C23.8241 30.3946 24.4107 30.5109 25.003 30.5105C26.1993 30.5097 25.6517 28.5753 26.497 27.7289C27.3423 26.8824 28.5008 26.6963 28.5 25.5C28.4992 24.3037 29.0337 23.6538 28.1873 22.8085C27.3408 21.9632 26.1933 21.4887 24.997 21.4895ZM14.497 27.5H9.99701V24.5H14.497V27.5ZM33.481 19.637L31.3615 17.5145L34.543 14.3315L36.6655 16.454L33.4825 19.6355L33.481 19.637ZM16.5115 19.637L13.3315 16.4555L15.454 14.3345L18.634 17.5175L16.513 19.6355V19.637H16.5115ZM26.497 15.5H23.497V11H26.497V15.5Z" fill="black"/>
<path d="M38.5 37.5L35.5 45H38.5L35.5 50.5H38.5L35.5 56.5" stroke="black" stroke-width="2.5"/>
</svg>
