<svg width="64" height="64" viewBox="0 0 64 64" fill="none" xmlns="http://www.w3.org/2000/svg">
<path d="M47.2801 29.1732C45.4016 24.2186 40.615 20.6953 35.0082 20.6953C29.4014 20.6953 24.6148 24.2145 22.7363 29.1691C19.2213 30.092 16.625 33.2912 16.625 37.1016C16.625 41.6338 20.2959 45.3047 24.824 45.3047H45.176C49.7041 45.3047 53.375 41.6338 53.375 37.1016C53.375 33.2994 50.7869 30.1002 47.2801 29.1732ZM48.7689 40.6986C48.2983 41.1721 47.7383 41.5474 47.1216 41.803C46.5049 42.0586 45.8436 42.1893 45.176 42.1875H24.824C23.4664 42.1875 22.1908 41.6584 21.2311 40.6986C20.7576 40.2272 20.3822 39.6665 20.1266 39.0491C19.8711 38.4317 19.7404 37.7698 19.7422 37.1016C19.7422 35.9531 20.1154 34.8744 20.8168 33.9721C21.5036 33.0979 22.4546 32.4692 23.5279 32.1797L25.0824 31.7736L25.6525 30.2725C26.0053 29.3373 26.4975 28.4637 27.1168 27.6721C27.7282 26.8875 28.4525 26.1978 29.266 25.6254C30.9518 24.44 32.9369 23.8125 35.0082 23.8125C37.0795 23.8125 39.0646 24.44 40.7504 25.6254C41.5666 26.1996 42.2885 26.8887 42.8996 27.6721C43.5189 28.4637 44.0111 29.3414 44.3639 30.2725L44.9299 31.7695L46.4803 32.1797C48.7074 32.7744 50.2578 34.7965 50.2578 37.1016C50.2578 38.4592 49.7287 39.7389 48.7689 40.6986Z" fill="black"/>
<path d="M38.5 37.5L35.5 45H38.5L35.5 50.5H38.5L35.5 56.5" stroke="black" stroke-width="2.5"/>
</svg>
