<svg width="64" height="64" viewBox="0 0 64 64" fill="none" xmlns="http://www.w3.org/2000/svg">
<path d="M47.2801 28.1732C45.4016 23.2186 40.615 19.6953 35.0082 19.6953C29.4014 19.6953 24.6148 23.2145 22.7363 28.1691C19.2213 29.092 16.625 32.2912 16.625 36.1016C16.625 40.6338 20.2959 44.3047 24.824 44.3047H45.176C49.7041 44.3047 53.375 40.6338 53.375 36.1016C53.375 32.2994 50.7869 29.1002 47.2801 28.1732ZM48.7689 39.6986C48.2983 40.1721 47.7383 40.5474 47.1216 40.803C46.5049 41.0586 45.8436 41.1893 45.176 41.1875H24.824C23.4664 41.1875 22.1908 40.6584 21.2311 39.6986C20.7576 39.2272 20.3822 38.6665 20.1266 38.0491C19.8711 37.4317 19.7404 36.7698 19.7422 36.1016C19.7422 34.9531 20.1154 33.8744 20.8168 32.9721C21.5036 32.0979 22.4546 31.4692 23.5279 31.1797L25.0824 30.7736L25.6525 29.2725C26.0053 28.3373 26.4975 27.4637 27.1168 26.6721C27.7282 25.8875 28.4525 25.1978 29.266 24.6254C30.9518 23.44 32.9369 22.8125 35.0082 22.8125C37.0795 22.8125 39.0646 23.44 40.7504 24.6254C41.5666 25.1996 42.2885 25.8887 42.8996 26.6721C43.5189 27.4637 44.0111 28.3414 44.3639 29.2725L44.9299 30.7695L46.4803 31.1797C48.7074 31.7744 50.2578 33.7965 50.2578 36.1016C50.2578 37.4592 49.7287 38.7389 48.7689 39.6986Z" fill="black"/>
<path d="M38.5 36.5L35.5 44H38.5L35.5 49.5H38.5L35.5 55.5" stroke="black" stroke-width="2.5"/>
<path d="M30.7477 52.1186L31.1236 51.9107L30.708 51.1586L30.332 51.3664C30.0437 51.5259 29.7883 51.7387 29.5793 51.9934L27.8594 51L29.5795 50.0066C29.7885 50.2613 30.0439 50.4741 30.3322 50.6336L30.7082 50.8414L31.1238 50.0893L30.7479 49.8814C30.5969 49.7981 30.4591 49.6928 30.3391 49.5689L31.375 48.9697L30.9453 48.2266L29.9102 48.8238C29.8627 48.6578 29.8402 48.4857 29.8434 48.3131L29.8514 47.8834L28.992 47.8674L28.984 48.2971C28.9779 48.6262 29.0342 48.9535 29.1498 49.2617L27.4297 50.2557V48.2691C27.7547 48.2154 28.0666 48.1005 28.3488 47.9307L28.7168 47.709L28.2732 46.9729L27.9053 47.1945C27.7574 47.2835 27.5971 47.35 27.4297 47.392V46.3125H26.5703V47.392C26.4029 47.35 26.2426 47.2835 26.0947 47.1945L25.7268 46.9729L25.2832 47.709L25.6512 47.9307C25.9334 48.1005 26.2453 48.2154 26.5703 48.2691V50.2557L24.8502 49.2617C24.9662 48.9533 25.0227 48.6257 25.0168 48.2963L25.0088 47.8666L24.1494 47.8826L24.1574 48.3123C24.1606 48.4849 24.1381 48.6571 24.0906 48.823L23.0547 48.2266L22.625 48.9707L23.6611 49.5691C23.5411 49.693 23.4033 49.7983 23.2523 49.8816L22.8764 50.0893L23.292 50.8414L23.668 50.6336C23.9563 50.4741 24.2117 50.2613 24.4207 50.0066L26.1406 51L24.4205 51.9934C24.2115 51.7387 23.9561 51.5259 23.6678 51.3664L23.292 51.1586L22.8764 51.9107L23.2523 52.1186C23.4033 52.2019 23.5411 52.3072 23.6611 52.4311L22.625 53.0312L23.0547 53.7754L24.0908 53.1771C24.1383 53.3431 24.1608 53.5153 24.1576 53.6879L24.1496 54.1176L25.009 54.1336L25.017 53.7039C25.0229 53.3744 24.9663 53.0467 24.8502 52.7383L26.5703 51.7443V53.7309C26.2453 53.7846 25.9334 53.8995 25.6512 54.0693L25.2832 54.291L25.7268 55.0271L26.0947 54.8055C26.2426 54.7165 26.4029 54.65 26.5703 54.608V55.6875H27.4297V54.608C27.5971 54.65 27.7574 54.7165 27.9053 54.8055L28.2732 55.0271L28.7168 54.291L28.3488 54.0693C28.0666 53.8995 27.7547 53.7846 27.4297 53.7309V51.7443L29.1498 52.7383C29.0338 53.0467 28.9773 53.3743 28.9832 53.7037L28.9912 54.1334L29.8506 54.1174L29.8426 53.6877C29.8396 53.5148 29.8623 53.3424 29.9102 53.1762L30.9453 53.7744L31.375 53.0312L30.3398 52.4318C30.4595 52.3078 30.597 52.2023 30.7477 52.1186V52.1186Z" fill="black"/>
</svg>
