<svg width="256" height="256" viewBox="0 0 256 256" fill="none" xmlns="http://www.w3.org/2000/svg">
<path d="M216 59.9999H179.83C178.775 46.9786 172.856 34.8317 163.253 25.9751C153.649 17.1185 141.064 12.2012 128 12.2012C114.936 12.2012 102.351 17.1185 92.7471 25.9751C83.1436 34.8317 77.2255 46.9786 76.17 59.9999H40C34.6957 59.9999 29.6086 62.107 25.8579 65.8577C22.1071 69.6084 20 74.6955 20 79.9998V200C20 205.304 22.1071 210.391 25.8579 214.142C29.6086 217.893 34.6957 220 40 220H216C221.304 220 226.391 217.893 230.142 214.142C233.893 210.391 236 205.304 236 200V79.9998C236 74.6955 233.893 69.6084 230.142 65.8577C226.391 62.107 221.304 59.9999 216 59.9999ZM128 35.9999C134.733 36.0005 141.239 38.427 146.329 42.8348C151.418 47.2425 154.748 53.3364 155.71 59.9999H100.29C101.252 53.3364 104.582 47.2425 109.671 42.8348C114.761 38.427 121.267 36.0005 128 35.9999ZM212 196H44V83.9998H76V95.9998C76 99.1824 77.2643 102.235 79.5147 104.485C81.7652 106.736 84.8174 108 88 108C91.1826 108 94.2348 106.736 96.4853 104.485C98.7357 102.235 100 99.1824 100 95.9998V83.9998H156V95.9998C156 99.1824 157.264 102.235 159.515 104.485C161.765 106.736 164.817 108 168 108C171.183 108 174.235 106.736 176.485 104.485C178.736 102.235 180 99.1824 180 95.9998V83.9998H212V196Z" fill="black"/>
</svg>
