<svg width="32" height="32" viewBox="0 0 32 32" fill="none" xmlns="http://www.w3.org/2000/svg">
<path d="M29.3334 15.9998C29.3334 8.63584 23.364 2.6665 16 2.6665C8.63602 2.6665 2.66669 8.63584 2.66669 15.9998C2.66669 23.3638 8.63602 29.3332 16 29.3332" stroke="#FFC888" stroke-width="1.5" stroke-linecap="round" stroke-linejoin="round"/>
<path d="M3.50671 11.3334H28.4934M17.3334 2.7334C17.3334 2.7334 21.3334 8.00006 21.3334 16.0001L17.3334 2.7334ZM14.6667 29.2667C14.6667 29.2667 10.6667 24.0001 10.6667 16.0001C10.6667 8.00006 14.6667 2.7334 14.6667 2.7334V29.2667ZM3.50671 20.6667H16H3.50671Z" stroke="#FFC888" stroke-width="1.5" stroke-linecap="round" stroke-linejoin="round"/>
<path d="M29.172 23.8894C29.8307 24.2947 29.7894 25.28 29.112 25.3574L25.6894 25.7454L24.1547 28.828C23.8507 29.44 22.9107 29.14 22.7547 28.3827L21.0814 20.228C20.9494 19.588 21.5254 19.1854 22.0814 19.528L29.172 23.8894V23.8894Z" stroke="#FFC888" stroke-width="1.5"/>
</svg>
